<svg xmlns="http://www.w3.org/2000/svg" xmlns:xlink="http://www.w3.org/1999/xlink" viewBox="0 0 1204.81 326.57"><defs><style>.cls-1,.cls-10,.cls-6,.cls-8,.cls-9{fill:none;}.cls-2,.cls-4{fill:#fff;}.cls-3{clip-path:url(#clip-path);}.cls-11,.cls-4,.cls-5,.cls-7{fill-rule:evenodd;}.cls-5{fill:#0095d3;}.cls-10,.cls-6,.cls-8,.cls-9{stroke:#0a120a;}.cls-6{stroke-width:1.75px;}.cls-7{fill:#e41824;}.cls-8{stroke-width:1.75px;}.cls-9{stroke-width:1.75px;}.cls-10{stroke-width:1.75px;}.cls-11{fill:#1b1918;}</style><clipPath id="clip-path" transform="translate(-0.3 -0.15)"><rect class="cls-1" width="327.6" height="327.15"/></clipPath></defs><title>twh-w</title><g id="Layer_2" data-name="Layer 2"><g id="Layer_1-2" data-name="Layer 1"><path class="cls-2" d="M396.12,55.53v43.2q0,7.09,3.7,10.85t10.4,3.75q6.81,0,10.5-3.75t3.7-10.85V55.53h14.1V98.62q0,8.91-3.85,15.06a24.46,24.46,0,0,1-10.3,9.25A32.78,32.78,0,0,1,410,126a31.9,31.9,0,0,1-14.15-3.1,23.66,23.66,0,0,1-10.05-9.25q-3.7-6.15-3.7-15.06V55.53Z" transform="translate(-0.3 -0.15)"/><path class="cls-2" d="M500.27,87.62a19.46,19.46,0,0,1-8.3,7.91q-5.66,3-14.25,3H466v26.8H452V55.53h25.7a31,31,0,0,1,13.8,2.8,19.45,19.45,0,0,1,8.55,7.7,22.57,22.57,0,0,1,.2,21.59Zm-14.55-3c1.87-1.77,2.8-4.25,2.8-7.46q0-10.19-11.4-10.19H466v20.3h11.1C481,87.23,483.85,86.34,485.72,84.58Z" transform="translate(-0.3 -0.15)"/><path class="cls-2" d="M560.32,55.53v11.3h-18.6v58.5h-14V66.83h-18.6V55.53Z" transform="translate(-0.3 -0.15)"/><path class="cls-2" d="M605.27,123.53a21.6,21.6,0,0,1-9.25-7.2,18.92,18.92,0,0,1-3.5-11.1h15a9.69,9.69,0,0,0,3.05,6.8,10.83,10.83,0,0,0,7.55,2.5,11.67,11.67,0,0,0,7.7-2.35,7.67,7.67,0,0,0,2.8-6.15,7.12,7.12,0,0,0-1.9-5.1A13.17,13.17,0,0,0,622,97.78a77.18,77.18,0,0,0-7.85-2.55,84.51,84.51,0,0,1-11-4,19.24,19.24,0,0,1-7.3-5.91q-3.06-3.95-3-10.54a18.81,18.81,0,0,1,3.1-10.8,19.6,19.6,0,0,1,8.7-7.05,31.53,31.53,0,0,1,12.8-2.45q10.8,0,17.55,5.25t7.45,14.65h-15.4a8,8,0,0,0-3-6,11.48,11.48,0,0,0-7.55-2.36,9.71,9.71,0,0,0-6.55,2.11,7.55,7.55,0,0,0-2.45,6.1A6.3,6.3,0,0,0,609.17,79a14.11,14.11,0,0,0,4.6,3q2.75,1.14,7.75,2.64a83.13,83.13,0,0,1,11.1,4,20.15,20.15,0,0,1,7.4,6q3.09,4,3.1,10.5a19.8,19.8,0,0,1-2.9,10.41,20.53,20.53,0,0,1-8.5,7.65,29,29,0,0,1-13.3,2.85A33.26,33.26,0,0,1,605.27,123.53Z" transform="translate(-0.3 -0.15)"/><path class="cls-2" d="M731.32,55.53v69.8h-14V79.93l-18.7,45.4H688l-18.8-45.4v45.4h-14V55.53h15.9l22.2,51.9,22.2-51.9Z" transform="translate(-0.3 -0.15)"/><path class="cls-2" d="M793.37,87.62a19.52,19.52,0,0,1-8.3,7.91q-5.66,3-14.25,3h-11.7v26.8h-14V55.53h25.7a31,31,0,0,1,13.8,2.8,19.45,19.45,0,0,1,8.55,7.7,22.57,22.57,0,0,1,.2,21.59Zm-14.55-3a9.8,9.8,0,0,0,2.8-7.46q0-10.19-11.4-10.19h-11.1v20.3h11.1C774.08,87.23,777,86.34,778.82,84.58Z" transform="translate(-0.3 -0.15)"/><path class="cls-2" d="M442,245.33H428l-31.7-47.9v47.9h-14v-69.9h14l31.7,48v-48h14Z" transform="translate(-0.3 -0.15)"/><path class="cls-2" d="M506.92,221.83h-40.5a13.75,13.75,0,0,0,4.2,9.4,13,13,0,0,0,9.1,3.39q7.8,0,11.1-6.69h15.1a25.29,25.29,0,0,1-9.2,13.15q-6.8,5.14-16.7,5.15a29,29,0,0,1-14.35-3.55,25,25,0,0,1-9.9-10.06,30.74,30.74,0,0,1-3.55-15,31.37,31.37,0,0,1,3.5-15.09,24.34,24.34,0,0,1,9.8-10,31.47,31.47,0,0,1,28.65-.1,23.85,23.85,0,0,1,9.7,9.65,29.18,29.18,0,0,1,3.45,14.35A32.67,32.67,0,0,1,506.92,221.83Zm-14.1-9.4a11.11,11.11,0,0,0-3.9-8.65,13.79,13.79,0,0,0-9.3-3.25,12.71,12.71,0,0,0-8.75,3.15,13.8,13.8,0,0,0-4.35,8.75Z" transform="translate(-0.3 -0.15)"/><path class="cls-2" d="M550.12,191.48a20.07,20.07,0,0,1,7.4,6.35v-7.9h14.1v55.8a29.71,29.71,0,0,1-3.1,13.75,23.09,23.09,0,0,1-9.3,9.6,29.78,29.78,0,0,1-15,3.54q-11.81,0-19.35-5.5a20.35,20.35,0,0,1-8.55-15h13.9a10.35,10.35,0,0,0,4.75,6.06,16.53,16.53,0,0,0,8.85,2.25,13.7,13.7,0,0,0,9.9-3.65q3.79-3.66,3.8-11v-8.61a21.19,21.19,0,0,1-7.45,6.5,22.16,22.16,0,0,1-10.85,2.61,23.72,23.72,0,0,1-12.8-3.61,25,25,0,0,1-9.15-10.14,32.67,32.67,0,0,1-3.35-15,32.1,32.1,0,0,1,3.35-14.9,24.49,24.49,0,0,1,9.1-10,24.14,24.14,0,0,1,12.85-3.5A23.2,23.2,0,0,1,550.12,191.48Zm5.4,17.39a14.05,14.05,0,0,0-5.4-5.59,14.44,14.44,0,0,0-7.3-1.95,14.06,14.06,0,0,0-12.55,7.45,17.32,17.32,0,0,0-2,8.65,17.93,17.93,0,0,0,2,8.75,14.85,14.85,0,0,0,5.4,5.75,13.75,13.75,0,0,0,7.15,2,14.44,14.44,0,0,0,7.3-2,14,14,0,0,0,5.4-5.61,20.14,20.14,0,0,0,0-17.5Z" transform="translate(-0.3 -0.15)"/><path class="cls-2" d="M636.42,221.83h-40.5a13.75,13.75,0,0,0,4.2,9.4,13,13,0,0,0,9.1,3.39q7.8,0,11.1-6.69h15.1a25.29,25.29,0,0,1-9.2,13.15q-6.79,5.14-16.7,5.15a29,29,0,0,1-14.35-3.55,25,25,0,0,1-9.9-10.06,30.74,30.74,0,0,1-3.55-15,31.37,31.37,0,0,1,3.5-15.09,24.34,24.34,0,0,1,9.8-10,31.47,31.47,0,0,1,28.65-.1,23.85,23.85,0,0,1,9.7,9.65,29.18,29.18,0,0,1,3.45,14.35A32.67,32.67,0,0,1,636.42,221.83Zm-14.1-9.4a11.11,11.11,0,0,0-3.9-8.65,13.81,13.81,0,0,0-9.3-3.25,12.69,12.69,0,0,0-8.75,3.15,13.8,13.8,0,0,0-4.35,8.75Z" transform="translate(-0.3 -0.15)"/><path class="cls-2" d="M668.07,191.62a19.66,19.66,0,0,1,9.95-2.5v14.71h-3.7q-6.6,0-10,3.1T661,217.73v27.6H647v-55.4h14v8.6A19.68,19.68,0,0,1,668.07,191.62Z" transform="translate(-0.3 -0.15)"/><path class="cls-2" d="M688.37,181a8.21,8.21,0,0,1,0-11.7,9.22,9.22,0,0,1,12.3,0,8.21,8.21,0,0,1,0,11.7,9.22,9.22,0,0,1-12.3,0Zm13,9v55.4h-14v-55.4Z" transform="translate(-0.3 -0.15)"/><path class="cls-2" d="M736.82,231.12v-11l32.7-46.79h16.3v45.6h8.8v12.19h-8.8v14.21h-14V231.12Zm35.9-42.79-20.5,30.6h20.5Z" transform="translate(-0.3 -0.15)"/><path class="cls-2" d="M801.82,185.33v-12.9h24.1v72.9h-14.4v-60Z" transform="translate(-0.3 -0.15)"/><path class="cls-2" d="M941.22,175.53v69.8h-14v-45.4l-18.7,45.4h-10.6l-18.8-45.4v45.4h-14v-69.8H881l22.2,51.9,22.2-51.9Z" transform="translate(-0.3 -0.15)"/><path class="cls-2" d="M1006.11,221.83h-40.5a13.84,13.84,0,0,0,4.2,9.4,13,13,0,0,0,9.1,3.39q7.8,0,11.1-6.69h15.1a25.24,25.24,0,0,1-9.2,13.15q-6.79,5.14-16.7,5.15a29,29,0,0,1-14.35-3.55,25,25,0,0,1-9.9-10.06,30.85,30.85,0,0,1-3.55-15,31.37,31.37,0,0,1,3.5-15.09,24.4,24.4,0,0,1,9.8-10,31.47,31.47,0,0,1,28.65-.1,23.85,23.85,0,0,1,9.7,9.65,29.18,29.18,0,0,1,3.45,14.35A32.67,32.67,0,0,1,1006.11,221.83Zm-14.1-9.4a11,11,0,0,0-3.9-8.65,13.79,13.79,0,0,0-9.3-3.25,12.73,12.73,0,0,0-8.75,3.15,13.9,13.9,0,0,0-4.35,8.75Z" transform="translate(-0.3 -0.15)"/><path class="cls-2" d="M1016.46,202.53a24.15,24.15,0,0,1,22-13.5,23.59,23.59,0,0,1,10.3,2.34,20.67,20.67,0,0,1,7.8,6.25V171.33h14.2v74h-14.2v-8.21a18.9,18.9,0,0,1-7.3,6.61,22.92,22.92,0,0,1-10.9,2.5,23.74,23.74,0,0,1-12.8-3.61,25.11,25.11,0,0,1-9.15-10.14,32.67,32.67,0,0,1-3.35-15A32.1,32.1,0,0,1,1016.46,202.53Zm38.25,6.34a14.05,14.05,0,0,0-5.4-5.59,14.41,14.41,0,0,0-7.3-1.95,14.06,14.06,0,0,0-12.55,7.45,17.43,17.43,0,0,0-2,8.65,18,18,0,0,0,2,8.75,14.85,14.85,0,0,0,5.4,5.75,13.77,13.77,0,0,0,7.15,2,14.41,14.41,0,0,0,7.3-2,14,14,0,0,0,5.4-5.61,20.14,20.14,0,0,0,0-17.5Z" transform="translate(-0.3 -0.15)"/><path class="cls-2" d="M1084.26,202.53a24.49,24.49,0,0,1,9.1-10,24.17,24.17,0,0,1,12.85-3.5,22.54,22.54,0,0,1,10.85,2.5,21.81,21.81,0,0,1,7.45,6.3v-7.9h14.1v55.4h-14.1v-8.1a20.8,20.8,0,0,1-7.45,6.45,22.9,22.9,0,0,1-11,2.55,23.45,23.45,0,0,1-12.75-3.61,25.14,25.14,0,0,1-9.1-10.14,32.67,32.67,0,0,1-3.35-15A32.1,32.1,0,0,1,1084.26,202.53Zm38.25,6.34a14.05,14.05,0,0,0-5.4-5.59,14.44,14.44,0,0,0-7.3-1.95,14.06,14.06,0,0,0-12.55,7.45,17.43,17.43,0,0,0-2,8.65,18,18,0,0,0,2,8.75,14.85,14.85,0,0,0,5.4,5.75,13.77,13.77,0,0,0,7.15,2,14.44,14.44,0,0,0,7.3-2,14,14,0,0,0,5.4-5.61,20.14,20.14,0,0,0,0-17.5Z" transform="translate(-0.3 -0.15)"/><path class="cls-2" d="M1199,195.37q6.1,6.25,6.1,17.46v32.5h-14v-30.6q0-6.6-3.3-10.15a11.68,11.68,0,0,0-9-3.55q-5.8,0-9.15,3.55t-3.35,10.15v30.6h-14v-55.4h14v6.9a19.3,19.3,0,0,1,7.15-5.65,22.07,22.07,0,0,1,9.55-2.06Q1192.91,189.12,1199,195.37Z" transform="translate(-0.3 -0.15)"/><g class="cls-3"><path class="cls-4" d="M327.23,120.12c.16,69.45-23,132.6-61.65,189.86l-.71,1.06-1.21.39c-66,21.61-133.2,19.12-199.62,0l-1.22-.35-.75-1C21.12,254,2.72,189.32.34,120.26L.3,119l.75-1C41.74,61.67,97.57,24.19,162.52.59l1.19-.44,1.22.39c66.1,21.32,119,62.83,161.52,117.3l.78,1Z" transform="translate(-0.3 -0.15)"/><path class="cls-5" d="M163.79,4.08C226,24.12,278.94,63,323.52,120.13c.14,65.31-20.47,127.73-61,187.77-62.07,20.32-127.81,20-197.44,0-38.51-52.75-58.52-115.36-61-187.77C42.33,67.2,95.69,28.82,163.79,4.08Z" transform="translate(-0.3 -0.15)"/></g><path class="cls-4" d="M163.82,257.56c3.28-1.57,9.25-3.14,12.55-4.71,5-2.52,8.57-5.9,12.23-9.9a49.06,49.06,0,0,0,5-.37c.52,0,.91.27,1.42,1,3.84,5.13,21.25,11.31,36.55,10.44,10.13-.58,21.69-6.39,25.41-15.51,5.19-3.77,7-10.45,9-16.27,3-5.61,6.25-8.2,6.6-16.5,1.89-3.45,3.46-7.53,2.83-16,16.78-19.5.08-40.93-12.26-58.46,7.07,15,12.1,39.06,4.71,43.38-6,4.6-16.71,2.74-23.6-.43-8.87-4.09-17.18-10.74-29.73-10.57-1.37.26-2.93.48-4.39.84a16,16,0,0,0-8.48,5c-5.7,6.33-3.1,13.37-.27,20.67,2.57,5.6-1.26,9.43-5.66,10.38a43.85,43.85,0,0,0-7.31-24.29c13.61-65.22,24-90.75,31.35-85.57-7.66-4-15.66-9.84-26-5.85-4-5.74-7.46-9.37-19-9-1.49-2.24-6.61-5.45-10.9-8.33-4.29,2.88-9.41,6.09-10.9,8.33-11.55-.32-15,3.31-19,9-10.34-4-18.35,1.8-26,5.85,7.33-5.18,17.74,20.35,31.36,85.57A43.85,43.85,0,0,0,132,200.52c-4.4-1-8.23-4.78-5.66-10.38,2.82-7.3,5.43-14.34-.28-20.67a16,16,0,0,0-8.48-5c-1.45-.36-3-.58-4.39-.84-12.55-.17-20.85,6.48-29.72,10.57-6.9,3.17-17.59,5-23.61.43-7.39-4.32-2.36-28.37,4.72-43.38-12.34,17.53-29,39-12.26,58.46-.64,8.5.94,12.58,2.83,16,.34,8.3,3.57,10.89,6.6,16.5,2,5.82,3.76,12.5,9,16.27,3.72,9.12,15.29,14.93,25.42,15.51,15.3.87,32.71-5.31,36.54-10.44,1.37-1.84,1.84-.47,6.43-.59,3.67,4,7.21,7.38,12.24,9.9,3.3,1.57,9.27,3.14,12.54,4.71Z" transform="translate(-0.3 -0.15)"/><path class="cls-6" d="M163.82,257.56c3.28-1.57,9.25-3.14,12.55-4.71,5-2.52,8.57-5.9,12.23-9.9a49.06,49.06,0,0,0,5-.37c.52,0,.91.27,1.42,1,3.84,5.13,21.25,11.31,36.55,10.44,10.13-.58,21.69-6.39,25.41-15.51,5.19-3.77,7-10.45,9-16.27,3-5.61,6.25-8.2,6.6-16.5,1.89-3.45,3.46-7.53,2.83-16,16.78-19.5.08-40.93-12.26-58.46,7.07,15,12.1,39.06,4.71,43.38-6,4.6-16.71,2.74-23.6-.43-8.87-4.09-17.18-10.74-29.73-10.57-1.37.26-2.93.48-4.39.84a16,16,0,0,0-8.48,5c-5.7,6.33-3.1,13.37-.27,20.67,2.57,5.6-1.26,9.43-5.66,10.38a43.85,43.85,0,0,0-7.31-24.29c13.61-65.22,24-90.75,31.35-85.57-7.66-4-15.66-9.84-26-5.85-4-5.74-7.46-9.37-19-9-1.49-2.24-6.61-5.45-10.9-8.33-4.29,2.88-9.41,6.09-10.9,8.33-11.55-.32-15,3.31-19,9-10.34-4-18.35,1.8-26,5.85,7.33-5.18,17.74,20.35,31.36,85.57A43.85,43.85,0,0,0,132,200.52c-4.4-1-8.23-4.78-5.66-10.38,2.82-7.3,5.43-14.34-.28-20.67a16,16,0,0,0-8.48-5c-1.45-.36-3-.58-4.39-.84-12.55-.17-20.85,6.48-29.72,10.57-6.9,3.17-17.59,5-23.61.43-7.39-4.32-2.36-28.37,4.72-43.38-12.34,17.53-29,39-12.26,58.46-.64,8.5.94,12.58,2.83,16,.34,8.3,3.57,10.89,6.6,16.5,2,5.82,3.76,12.5,9,16.27,3.72,9.12,15.29,14.93,25.42,15.51,15.3.87,32.71-5.31,36.54-10.44,1.37-1.84,1.84-.47,6.43-.59,3.67,4,7.21,7.38,12.24,9.9,3.3,1.57,9.27,3.14,12.54,4.71Zm111.56-67.78c-14.16,5-18.45,4.68-22.43,4.23M52.27,189.78c14.15,5,18.45,4.68,22.43,4.23M274,202.38a36.08,36.08,0,0,1-23.28,7m-197-7a36.06,36.06,0,0,0,23.28,7m190,11.46c-5.35,3.77-13.56,5.37-21.6,4.43M60.74,220.82c5.36,3.77,13.57,5.37,21.61,4.43M259,236.57c-6.48,2.25-13.81,3.58-21,2.47M68.68,236.57c6.49,2.25,13.82,3.58,21,2.47m138.18-73c-19.47-1-20.38,10.42-14.27,24.94,6.56,11.84,5.84,17.85,5.54,24.2-3.25,17.43-14.47,22.16-25.19,27.37M99.82,166c19.47-1,20.37,10.42,14.27,24.94-6.56,11.84-5.84,17.85-5.55,24.2,3.26,17.43,14.6,22.16,25.32,27.37m30-83.33c-3.81-9-10.6-10.43-10-19.31.44-6.42,5.23-10.35,10-15.48,4.77,5.13,9.55,9.06,10,15.48.62,8.88-6.17,10.32-10,19.31Z" transform="translate(-0.3 -0.15)"/><path class="cls-7" d="M163.82,222c4,.17,6.13,2.49,6.13,6,7.42-3.38,11.19-8,11.75-14.39,1.6-18-17.94-28.9-17.88-47.12.07,18.22-19.48,29.1-17.88,47.12.57,6.38,4.33,11,11.76,14.39,0-3.53,2.11-5.85,6.12-6Z" transform="translate(-0.3 -0.15)"/><path class="cls-6" d="M163.82,222c4,.17,6.13,2.49,6.13,6,7.42-3.38,11.19-8,11.75-14.39,1.6-18-17.94-28.9-17.88-47.12.07,18.22-19.48,29.1-17.88,47.12.57,6.38,4.33,11,11.76,14.39,0-3.53,2.11-5.85,6.12-6Z" transform="translate(-0.3 -0.15)"/><path class="cls-4" d="M163.82,275.86c-9.46-6.75-22.14-10.43-33.92-7.66-15.64,3.69-14,13.76-34.72,16.25-.33-5-.42-10.84-.75-15.88,15.44-.84,16.24-9.44,31-12.85,18.37-3.53,28.85,1.5,38.39,6.8,9.54-5.3,20-10.33,38.39-6.8,14.77,3.41,15.56,12,31,12.85-.34,5-.42,10.84-.76,15.88-20.72-2.49-19.07-12.56-34.72-16.25-11.78-2.77-24.46.91-33.92,7.66Z" transform="translate(-0.3 -0.15)"/><path class="cls-6" d="M163.82,275.86c-9.46-6.75-22.14-10.43-33.92-7.66-15.64,3.69-14,13.76-34.72,16.25-.33-5-.42-10.84-.75-15.88,15.44-.84,16.24-9.44,31-12.85,18.37-3.53,28.85,1.5,38.39,6.8,9.54-5.3,20-10.33,38.39-6.8,14.77,3.41,15.56,12,31,12.85-.34,5-.42,10.84-.76,15.88-20.72-2.49-19.07-12.56-34.72-16.25-11.78-2.77-24.46.91-33.92,7.66Z" transform="translate(-0.3 -0.15)"/><path class="cls-4" d="M232.46,284.33c2,2.81,3.53,4.49,5.55,7.43-8.32-.59-13.87.59-19.41-3-8.16-3.83-14.34-10-23.08-12.13-12.16-3-21.84,1.44-31.7,8.32-9.85-6.88-19.54-11.28-31.69-8.32-8.75,2.14-14.93,8.3-23.08,12.13-5.55,3.61-11.09,2.43-19.41,3,2-2.94,3.53-4.62,5.54-7.43,20.72-2.37,19.08-12.44,34.72-16.12,11.78-2.78,24.46.9,33.92,7.65,9.46-6.75,22.14-10.43,33.92-7.65,15.65,3.68,14,13.75,34.72,16.12Z" transform="translate(-0.3 -0.15)"/><path class="cls-8" d="M232.46,284.33c2,2.81,3.53,4.49,5.55,7.43-8.32-.59-13.87.59-19.41-3-8.16-3.83-14.34-10-23.08-12.13-12.16-3-21.84,1.44-31.7,8.32-9.85-6.88-19.54-11.28-31.69-8.32-8.75,2.14-14.93,8.3-23.08,12.13-5.55,3.61-11.09,2.43-19.41,3,2-2.94,3.53-4.62,5.54-7.43,20.72-2.37,19.08-12.44,34.72-16.12,11.78-2.78,24.46.9,33.92,7.65,9.46-6.75,22.14-10.43,33.92-7.65,15.65,3.68,14,13.75,34.72,16.12Z" transform="translate(-0.3 -0.15)"/><path class="cls-6" d="M174.62,75.43,173.05,124M153,75.43,154.59,124M194.2,84.05,184,133.4M133.44,84.05l10.18,49.35m29.52,11.09c.65,9,.83,21.81,1.48,30.82.37,10.44,13.56,15.28,20.37,25.85m-40.48-56.67c-.66,9-.83,21.81-1.48,30.82-.37,10.44-13.57,15.28-20.37,25.85m40.78-36.81c6.53,3.91,11.49,7.18,14.89,12.14M154.2,164.35c-6.53,3.91-11.49,7.18-14.88,12.14" transform="translate(-0.3 -0.15)"/><path class="cls-9" d="M164.83,167.39c-7.71,17,7.7,37-3.14,48.66" transform="translate(-0.3 -0.15)"/><path class="cls-10" d="M163.82,231.72c1.54.14,3.11.53,4.67.67a27.11,27.11,0,0,0,.6,10.48l3.36,1.33c-1.46,1.62-2.15,3.75-3.6,5.37s-3.69,2.72-5,4.34c-1.34-1.62-3.56-2.73-5-4.34s-2.14-3.75-3.6-5.37l3.36-1.33a27.11,27.11,0,0,0,.59-10.48c1.56-.14,3.14-.53,4.67-.67Z" transform="translate(-0.3 -0.15)"/><path class="cls-11" d="M66.77,124.15,52.12,117l-2.18,4.48L47,120l5.85-12,3,1.46L53.61,114l14.65,7.15Zm-11.85-20.6,1.9-2.81,8.81,5.94a24.94,24.94,0,0,0,2.79,1.73,3,3,0,0,0,4-1.22,3.11,3.11,0,0,0,.65-2.19,2.87,2.87,0,0,0-.92-1.68,23.17,23.17,0,0,0-2.68-2l-9-6.08,1.9-2.81L71,98.22a30.09,30.09,0,0,1,4,3,6.05,6.05,0,0,1,1.48,2.21,5.37,5.37,0,0,1,.22,2.54,7.41,7.41,0,0,1-1.32,3,8.08,8.08,0,0,1-2.57,2.66,5.43,5.43,0,0,1-2.5.68,5.76,5.76,0,0,1-2.33-.43,27,27,0,0,1-4.32-2.51Zm28.2-6L71,86.68l-3.33,3.7L65.2,88.16l8.93-9.91,2.47,2.22-3.33,3.69L85.39,95.07Zm13.63-14-15-13.26,2.77-2.09,10.14,9.24L89,64.86l3.21-2.42,10.6,9.17L96.61,59.12l2.73-2.06,8.55,18.13L105,77.35l-11.5-9.7,6.17,13.72Zm7.33-29.07,3-1.49,4.65,9.55a26.45,26.45,0,0,0,1.55,2.9,3.32,3.32,0,0,0,1.78,1.28,3.23,3.23,0,0,0,2.34-.33,3.06,3.06,0,0,0,1.65-1.57,2.82,2.82,0,0,0,.05-1.9,25.23,25.23,0,0,0-1.33-3.07l-4.76-9.75,3-1.49,4.52,9.27a30.81,30.81,0,0,1,1.94,4.6,6,6,0,0,1,.17,2.66,5.26,5.26,0,0,1-1.07,2.3,7.45,7.45,0,0,1-2.65,2,8,8,0,0,1-3.56,1,5.37,5.37,0,0,1-2.5-.66,5.65,5.65,0,0,1-1.81-1.53,28.21,28.21,0,0,1-2.48-4.33ZM128.1,65l-5.73-18.76,6.82-2.09a10.44,10.44,0,0,1,3.89-.64,4.07,4.07,0,0,1,2.42,1.23,6.4,6.4,0,0,1,1.61,2.74,5.8,5.8,0,0,1,0,3.82,5.08,5.08,0,0,1-2.65,2.7,8.14,8.14,0,0,1,2.22,1,23.57,23.57,0,0,1,2.78,2.48l3.08,3.07-3.88,1.18-3.59-3.37a29.75,29.75,0,0,0-2.55-2.23,2.65,2.65,0,0,0-1.21-.49,5.17,5.17,0,0,0-1.7.29l-.66.2,2.4,7.84ZM128,53.16l2.39-.73a11.42,11.42,0,0,0,2.85-1.12,1.87,1.87,0,0,0,.66-1.08,2.92,2.92,0,0,0-.1-1.5,2.56,2.56,0,0,0-.9-1.4,2,2,0,0,0-1.45-.36,23,23,0,0,0-2.38.66l-2.53.77Zm16.47,7.38L141.1,41.22l3.34-.59L147.84,60Zm12.93-1.88L157.78,39l3.4.06L161,46.82l6.64.11.14-7.72,3.38.06-.34,19.62-3.39-.06.15-8.57L161,50.14l-.15,8.58Zm31.81,3.17-3.63-.64L185,56.54l-6.61-1.16-2.14,4.15-3.54-.63,9.85-18.19,3.53.63Zm-4.8-8.73-1-7.57-3.5,6.77ZM191,62.51l6.71-18.44,3.1,1.13,2,14.67,4.48-12.32,3,1.08-6.71,18.44-3.2-1.16-2-14.35-4.38,12Zm25.36-11.18,5.42,3a10.37,10.37,0,0,1,2.61,1.87A5.5,5.5,0,0,1,225.72,59a8.83,8.83,0,0,1-.13,3.56,17,17,0,0,1-1.77,4.32,15,15,0,0,1-2.48,3.41,8.88,8.88,0,0,1-3.25,2.15,5.65,5.65,0,0,1-2.84.22,9.06,9.06,0,0,1-2.83-1.09l-5.57-3.09Zm1.35,4.55-6.3,11.37,2.22,1.22a7.55,7.55,0,0,0,1.88.83,3,3,0,0,0,1.59,0A4.47,4.47,0,0,0,218.8,68a14.92,14.92,0,0,0,2-3,13.31,13.31,0,0,0,1.39-3.22,4.6,4.6,0,0,0,.08-2.13,3.13,3.13,0,0,0-.92-1.57A13.52,13.52,0,0,0,219,56.62Zm15.7,30.43-2.95-2.22L232,79.65l-5.36-4-3.78,2.73L220,76.17l17-11.73,2.86,2.15Zm-.31-10,2.53-7.2-6.19,4.45Zm2.83,13.27,5.95-5.74,3.9-12.32,2.76,2.86-2.84,8.24L254,80.05l2.72,2.81-12.48,3.47-5.93,5.72Zm15.86,18.29L249.47,105l2.54-4-4.22-5.21-4.34,1.73-2.26-2.8,19.36-7.26,2.26,2.78Zm2.11-9.74,4.2-6.38L251,94.61Zm-1.29,11.61,17.33-9.21,1.55,2.91-8.35,12.22,11.57-6.15,1.48,2.78-17.32,9.21-1.6-3,8.12-12-11.3,6Zm7.6,14.74,18.06-7.66L279.6,120l-18.06,7.67Z" transform="translate(-0.3 -0.15)"/></g></g></svg>