<svg xmlns="http://www.w3.org/2000/svg" xmlns:xlink="http://www.w3.org/1999/xlink" viewBox="0 0 730.51 729.71"><defs><style>.cls-1,.cls-10,.cls-6,.cls-8,.cls-9{fill:none;}.cls-2{clip-path:url(#clip-path);}.cls-3{fill:#1b1918;}.cls-3,.cls-4,.cls-5,.cls-7{fill-rule:evenodd;}.cls-4{fill:#0095d3;}.cls-5{fill:#fff;}.cls-10,.cls-6,.cls-8,.cls-9{stroke:#0a120a;}.cls-6{stroke-width:3.9px;}.cls-7{fill:#e41824;}.cls-8{stroke-width:3.9px;}.cls-9{stroke-width:3.9px;}.cls-10{stroke-width:3.9px;}</style><clipPath id="clip-path" transform="translate(-0.67 -0.34)"><rect class="cls-1" width="732" height="731"/></clipPath></defs><title>twh</title><g id="Layer_2" data-name="Layer 2"><g id="Layer_1-2" data-name="Layer 1"><g class="cls-2"><path class="cls-3" d="M731.18,268.4c.35,155.19-51.34,296.28-137.75,424.24L591.84,695l-2.7.88c-147.48,48.28-297.64,42.72-446,.09l-2.74-.79-1.67-2.29C47.2,567.54,6.08,423,.77,268.71l-.1-2.85,1.67-2.3C93.27,137.81,218,54,363.14,1.31l2.67-1,2.71.87C516.21,48.84,634.43,141.6,729.43,263.32l1.75,2.24Z" transform="translate(-0.67 -0.34)"/><path class="cls-4" d="M366,9.11C504.87,53.9,623.28,140.8,722.89,268.42c.32,145.94-45.74,285.41-136.33,419.58-138.7,45.4-285.58,44.7-441.17,0C59.34,570.12,14.63,430.21,9.06,268.42,94.58,150.16,213.82,64.4,366,9.11Z" transform="translate(-0.67 -0.34)"/></g><path class="cls-5" d="M366.05,575.51c7.32-3.51,20.66-7,28-10.53,11.24-5.62,19.15-13.18,27.34-22.13,6.41.18,9.23-1,11.19-.82,1.17.07,2,.61,3.18,2.14,8.57,11.47,47.48,25.28,81.65,23.33,22.65-1.3,48.49-14.26,56.79-34.66,11.6-8.41,15.63-23.34,20-36.34,6.76-12.55,14-18.33,14.74-36.87,4.23-7.71,7.74-16.83,6.32-35.82,37.5-43.58.18-91.45-27.39-130.63,15.81,33.53,27.05,87.28,10.54,96.92-13.44,10.29-37.34,6.14-52.75-1-19.81-9.12-38.37-24-66.42-23.6-3.06.58-6.55,1.06-9.81,1.87a35.67,35.67,0,0,0-18.94,11.27c-12.75,14.14-6.93,29.86-.62,46.19,5.74,12.51-2.81,21.06-12.64,23.17A98.07,98.07,0,0,0,421,393.78C451.37,248.05,474.63,191,491,202.58c-17.11-9.06-35-22-58.1-13.07-8.92-12.83-16.68-20.94-42.49-20.23-3.33-5-14.77-12.18-24.36-18.62-9.58,6.44-21,13.62-24.36,18.62-25.81-.71-33.56,7.4-42.48,20.23-23.1-8.92-41,4-58.11,13.07,16.38-11.59,39.64,45.47,70.06,191.2A98,98,0,0,0,294.83,448c-9.83-2.11-18.39-10.66-12.64-23.17,6.3-16.33,12.13-32.05-.62-46.19a35.73,35.73,0,0,0-18.95-11.27c-3.25-.81-6.74-1.29-9.8-1.87-28-.4-46.61,14.48-66.43,23.6-15.41,7.1-39.3,11.25-52.74,1-16.51-9.64-5.27-63.39,10.53-96.92-27.57,39.18-64.89,87.05-27.39,130.63-1.42,19,2.1,28.11,6.32,35.82.78,18.54,8,24.32,14.75,36.87,4.38,13,8.41,27.93,20,36.34,8.31,20.4,34.15,33.36,56.79,34.66,34.18,2,73.08-11.86,81.65-23.33,3.06-4.1,4.12-1,14.38-1.32,8.18,8.95,16.09,16.51,27.33,22.13,7.37,3.51,20.71,7,28,10.53Z" transform="translate(-0.67 -0.34)"/><path class="cls-6" d="M366.05,575.51c7.32-3.51,20.66-7,28-10.53,11.24-5.62,19.15-13.18,27.34-22.13,6.41.18,9.23-1,11.19-.82,1.17.07,2,.61,3.18,2.14,8.57,11.47,47.48,25.28,81.65,23.33,22.65-1.3,48.49-14.26,56.79-34.66,11.6-8.41,15.63-23.34,20-36.34,6.76-12.55,14-18.33,14.74-36.87,4.23-7.71,7.74-16.83,6.32-35.82,37.5-43.58.18-91.45-27.39-130.63,15.81,33.53,27.05,87.28,10.54,96.92-13.44,10.29-37.34,6.14-52.75-1-19.81-9.12-38.37-24-66.42-23.6-3.06.58-6.55,1.06-9.81,1.87a35.67,35.67,0,0,0-18.94,11.27c-12.75,14.14-6.93,29.86-.62,46.19,5.74,12.51-2.81,21.06-12.64,23.17A98.07,98.07,0,0,0,421,393.78C451.37,248.05,474.63,191,491,202.58c-17.11-9.06-35-22-58.1-13.07-8.92-12.83-16.68-20.94-42.49-20.23-3.33-5-14.77-12.18-24.36-18.62-9.58,6.44-21,13.62-24.36,18.62-25.81-.71-33.56,7.4-42.48,20.23-23.1-8.92-41,4-58.11,13.07,16.38-11.59,39.64,45.47,70.06,191.2A98,98,0,0,0,294.83,448c-9.83-2.11-18.39-10.66-12.64-23.17,6.3-16.33,12.13-32.05-.62-46.19a35.73,35.73,0,0,0-18.95-11.27c-3.25-.81-6.74-1.29-9.8-1.87-28-.4-46.61,14.48-66.43,23.6-15.41,7.1-39.3,11.25-52.74,1-16.51-9.64-5.27-63.39,10.53-96.92-27.57,39.18-64.89,87.05-27.39,130.63-1.42,19,2.1,28.11,6.32,35.82.78,18.54,8,24.32,14.75,36.87,4.38,13,8.41,27.93,20,36.34,8.31,20.4,34.15,33.36,56.79,34.66,34.18,2,73.08-11.86,81.65-23.33,3.06-4.1,4.12-1,14.38-1.32,8.18,8.95,16.09,16.51,27.33,22.13,7.37,3.51,20.71,7,28,10.53ZM615.32,424.05c-31.63,11.11-41.23,10.47-50.12,9.46m-448.41-9.46c31.62,11.11,41.23,10.47,50.12,9.46m445.3,18.7c-14.44,11.06-34.59,16.75-52,15.6m-440.3-15.6c14.45,11.06,34.59,16.75,52,15.6m424.45,25.6c-12,8.42-30.3,12-48.27,9.89m-412.37-9.89c12,8.42,30.3,12,48.27,9.89m394.64,25.29c-14.5,5-30.87,8-46.86,5.52m-378.31-5.52c14.49,5,30.86,8,46.86,5.52M509.07,370.9c-43.51-2.14-45.53,23.27-31.89,55.72,14.66,26.46,13.05,39.88,12.39,54.08-7.27,38.94-32.34,49.52-56.28,61.16M223,370.9c43.5-2.14,45.53,23.27,31.89,55.72-14.67,26.46-13.06,39.88-12.39,54.08,7.26,38.94,32.6,49.52,56.55,61.16m67-186.2c-8.52-20.09-23.69-23.31-22.32-43.15,1-14.34,11.68-23.13,22.32-34.58,10.65,11.45,21.34,20.24,22.32,34.58,1.38,19.84-13.79,23.06-22.32,43.15Z" transform="translate(-0.67 -0.34)"/><path class="cls-7" d="M366.05,496c9,.37,13.68,5.55,13.68,13.44,16.59-7.54,25-17.89,26.27-32.13,3.57-40.28-40.09-64.58-39.95-105.3.15,40.72-43.52,65-39.94,105.3,1.26,14.24,9.67,24.59,26.26,32.13,0-7.89,4.73-13.07,13.68-13.44Z" transform="translate(-0.67 -0.34)"/><path class="cls-6" d="M366.05,496c9,.37,13.68,5.55,13.68,13.44,16.59-7.54,25-17.89,26.27-32.13,3.57-40.28-40.09-64.58-39.95-105.3.15,40.72-43.52,65-39.94,105.3,1.26,14.24,9.67,24.59,26.26,32.13,0-7.89,4.73-13.07,13.68-13.44Z" transform="translate(-0.67 -0.34)"/><path class="cls-5" d="M366.05,616.41c-21.14-15.11-49.46-23.31-75.78-17.12-35,8.23-31.3,30.74-77.59,36.3-.75-11.26-.93-24.22-1.69-35.48,34.51-1.88,36.29-21.09,69.28-28.73,41.05-7.86,64.46,3.36,85.78,15.21,21.32-11.85,44.74-23.07,85.78-15.21,33,7.64,34.77,26.85,69.28,28.73-.75,11.26-.94,24.22-1.69,35.48-46.29-5.56-42.61-28.07-77.58-36.3-26.32-6.19-54.64,2-75.79,17.12Z" transform="translate(-0.67 -0.34)"/><path class="cls-6" d="M366.05,616.41c-21.14-15.11-49.46-23.31-75.78-17.12-35,8.23-31.3,30.74-77.59,36.3-.75-11.26-.93-24.22-1.69-35.48,34.51-1.88,36.29-21.09,69.28-28.73,41.05-7.86,64.46,3.36,85.78,15.21,21.32-11.85,44.74-23.07,85.78-15.21,33,7.64,34.77,26.85,69.28,28.73-.75,11.26-.94,24.22-1.69,35.48-46.29-5.56-42.61-28.07-77.58-36.3-26.32-6.19-54.64,2-75.79,17.12Z" transform="translate(-0.67 -0.34)"/><path class="cls-5" d="M519.42,635.31c4.51,6.29,7.89,10,12.39,16.62-18.58-1.32-31,1.31-43.36-6.76-18.22-8.56-32-22.33-51.58-27.09-27.16-6.63-48.8,3.2-70.82,18.58-22-15.38-43.66-25.21-70.82-18.58-19.54,4.76-33.35,18.53-51.57,27.09-12.39,8.07-24.78,5.44-43.37,6.76,4.51-6.58,7.89-10.33,12.39-16.62,46.29-5.28,42.62-27.79,77.59-36,26.32-6.19,54.64,2,75.78,17.12,21.15-15.11,49.47-23.31,75.79-17.12,35,8.23,31.29,30.74,77.58,36Z" transform="translate(-0.67 -0.34)"/><path class="cls-8" d="M519.42,635.31c4.51,6.29,7.89,10,12.39,16.62-18.58-1.32-31,1.31-43.36-6.76-18.22-8.56-32-22.33-51.58-27.09-27.16-6.63-48.8,3.2-70.82,18.58-22-15.38-43.66-25.21-70.82-18.58-19.54,4.76-33.35,18.53-51.57,27.09-12.39,8.07-24.78,5.44-43.37,6.76,4.51-6.58,7.89-10.33,12.39-16.62,46.29-5.28,42.62-27.79,77.59-36,26.32-6.19,54.64,2,75.78,17.12,21.15-15.11,49.47-23.31,75.79-17.12,35,8.23,31.29,30.74,77.58,36Z" transform="translate(-0.67 -0.34)"/><path class="cls-6" d="M390.18,168.55l-3.5,108.52M341.93,168.55l3.5,108.52m88.51-89.27L411.18,298.08m-113-110.28,22.75,110.28m65.95,24.77c1.46,20.14,1.85,48.75,3.31,68.88.82,23.32,30.31,34.12,45.51,57.76M345.23,322.85c-1.45,20.14-1.84,48.75-3.3,68.88-.83,23.32-30.31,34.12-45.51,57.76m91.13-82.27c14.59,8.75,25.67,16,33.26,27.13m-76.26-27.13c-14.58,8.75-25.67,16-33.25,27.13" transform="translate(-0.67 -0.34)"/><path class="cls-9" d="M368.3,374c-17.21,37.94,17.21,82.67-7,108.72" transform="translate(-0.67 -0.34)"/><path class="cls-10" d="M366.05,517.76c3.43.31,6.95,1.2,10.44,1.51a60.31,60.31,0,0,0,1.33,23.4l7.5,3c-3.25,3.61-4.79,8.36-8,12s-8.23,6.1-11.23,9.71c-3-3.61-8-6.09-11.22-9.71s-4.79-8.37-8.05-12l7.5-3a60.31,60.31,0,0,0,1.33-23.4c3.5-.31,7-1.2,10.44-1.51Z" transform="translate(-0.67 -0.34)"/><path class="cls-3" d="M149.2,277.41l-32.74-16-4.87,10-6.68-3.26L118,241.39l6.67,3.26-4.86,10,32.73,16Zm-26.47-46L127,225.1l19.69,13.28a59.07,59.07,0,0,0,6.23,3.87,7.37,7.37,0,0,0,4.87.49,7.26,7.26,0,0,0,4.16-3.23,6.88,6.88,0,0,0,1.44-4.9,6.35,6.35,0,0,0-2-3.74,56.67,56.67,0,0,0-6-4.44l-20.11-13.57,4.24-6.27,19.09,12.87a69.48,69.48,0,0,1,8.91,6.75,13.43,13.43,0,0,1,3.3,4.95,11.62,11.62,0,0,1,.49,5.66,16.71,16.71,0,0,1-2.94,6.73c-2,3-3.91,4.95-5.75,5.94A12,12,0,0,1,157,251a12.76,12.76,0,0,1-5.21-1,61.86,61.86,0,0,1-9.64-5.6Zm63-13.32-27.07-24.37L151.21,202l-5.51-5,19.94-22.15,5.51,5-7.42,8.25,27.07,24.38Zm30.47-31.3-33.54-29.63,6.19-4.67,22.64,20.65-12.64-28.18,7.19-5.41L229.71,160l-13.83-27.93L222,127.5,241.08,168l-6.42,4.84L209,151.15l13.78,30.67Zm16.37-65,6.81-3.31,10.4,21.34a60.62,60.62,0,0,0,3.47,6.46,6.81,6.81,0,0,0,9.19,2.14,6.87,6.87,0,0,0,3.69-3.51,6.24,6.24,0,0,0,.11-4.26,58.24,58.24,0,0,0-3-6.85L252.63,112l6.81-3.32,10.1,20.71a69.08,69.08,0,0,1,4.33,10.29,13.14,13.14,0,0,1,.38,5.94,11.61,11.61,0,0,1-2.4,5.15,16.79,16.79,0,0,1-5.9,4.36c-3.22,1.56-5.87,2.32-8,2.26a12.13,12.13,0,0,1-5.6-1.46,12.77,12.77,0,0,1-4-3.44,61.4,61.4,0,0,1-5.55-9.67Zm53.68,23.41-12.82-41.93,15.25-4.67q5.74-1.75,8.7-1.42a9,9,0,0,1,5.4,2.74,14.24,14.24,0,0,1,3.59,6.13,13,13,0,0,1,0,8.52,11.32,11.32,0,0,1-5.92,6,18.5,18.5,0,0,1,5,2.33,51.62,51.62,0,0,1,6.2,5.55l6.89,6.84L309.83,138l-8-7.53a63.25,63.25,0,0,0-5.71-5,5.91,5.91,0,0,0-2.71-1.08,10.83,10.83,0,0,0-3.79.65l-1.46.44L293.49,143Zm-.15-26.42,5.35-1.64q5.22-1.59,6.36-2.5a4.26,4.26,0,0,0,1.49-2.4,6.38,6.38,0,0,0-.23-3.36,5.86,5.86,0,0,0-2-3.13,4.49,4.49,0,0,0-3.24-.81c-.61.09-2.38.58-5.33,1.48l-5.64,1.73Zm36.8,16.5L315.28,92.1l7.46-1.32L330.35,134Zm28.91-4.21.76-43.84,7.58.13-.3,17.25,14.84.26.3-17.25,7.57.13-.77,43.84-7.57-.13.34-19.17L359.71,112l-.34,19.17Zm71.08,7.08-8.12-1.43-1.5-10.38-14.76-2.61L393.72,133l-7.92-1.4,22-40.64,7.89,1.39Zm-10.73-19.5-2.26-16.92-7.82,15.14Zm14.63,21,15-41.2L448.7,101l4.41,32.77,10-27.52,6.61,2.41-15,41.2-7.15-2.6-4.43-32-9.78,26.87Zm56.66-25,12.11,6.71a23.72,23.72,0,0,1,5.84,4.19,12.48,12.48,0,0,1,3,6.28,20,20,0,0,1-.3,8,37.93,37.93,0,0,1-4,9.66,33.34,33.34,0,0,1-5.53,7.6,19.73,19.73,0,0,1-7.27,4.82,12.87,12.87,0,0,1-6.35.49,19.76,19.76,0,0,1-6.31-2.44l-12.46-6.91Zm3,10.17-14.08,25.39,4.95,2.74a17.24,17.24,0,0,0,4.21,1.85,6.7,6.7,0,0,0,3.56-.1,9.88,9.88,0,0,0,3.78-2.75,32.88,32.88,0,0,0,4.57-6.65,30.81,30.81,0,0,0,3.11-7.19,10.56,10.56,0,0,0,.18-4.76,7,7,0,0,0-2.07-3.51,29.21,29.21,0,0,0-5.24-3.38Zm35.07,68-6.59-5,3.39-9.93-12-9-8.47,6.1-6.41-4.84,38-26.22,6.4,4.82Zm-.7-22.24,5.66-16.11-13.84,9.95Zm6.34,29.63,13.28-12.82,8.72-27.52,6.17,6.39L549,184.69l18.48-5.83,6.06,6.28-27.89,7.76-13.23,12.78Zm35.44,40.87-5.19-6.41,5.68-8.82-9.44-11.65L544,218.1l-5.05-6.25,43.27-16.23,5,6.22Zm4.7-21.76,9.39-14.26-15.84,6.31Zm-2.88,26,38.72-20.59,3.46,6.51L588,258.52l25.85-13.74,3.3,6.22-38.71,20.58-3.57-6.72L593,238.09l-25.25,13.43Zm17,32.94,40.36-17.13,3,7-40.36,17.13Z" transform="translate(-0.67 -0.34)"/></g></g></svg>