<svg width="360" height="194" viewBox="0 0 360 194" fill="none" xmlns="http://www.w3.org/2000/svg">
<rect x="1.35132" y="0.494872" width="357.297" height="192.595" rx="19.3" fill="#1E4DB7"/>
<rect x="1.35132" y="0.494872" width="357.297" height="192.595" rx="19.3" stroke="#DBDBDB" stroke-width="0.989744"/>
<path d="M32.0453 50.6914V36.1422H41.2321V37.8465H34.1238V42.5023H40.6086V44.165H34.1238V48.9871H41.2321V50.6914H32.0453ZM47.2869 50.9408C46.414 50.9408 45.6935 50.7953 45.1253 50.5043C44.5572 50.2134 44.1346 49.8254 43.8575 49.3404C43.5803 48.8554 43.4418 48.3289 43.4418 47.7608C43.4418 47.0818 43.6219 46.4998 43.9822 46.0149C44.3425 45.5299 44.8551 45.1558 45.5202 44.8925C46.1854 44.6292 46.989 44.4976 47.9313 44.4976H50.654C50.654 43.9018 50.5571 43.4099 50.3631 43.0219C50.1829 42.62 49.9127 42.3221 49.5525 42.1281C49.2061 41.9203 48.7696 41.8164 48.243 41.8164C47.6195 41.8164 47.0722 41.9688 46.601 42.2736C46.1438 42.5785 45.8667 43.0288 45.7697 43.6246H43.6912C43.7743 42.8764 44.0238 42.239 44.4394 41.7125C44.869 41.1859 45.4163 40.7841 46.0814 40.5069C46.7604 40.2298 47.4809 40.0913 48.243 40.0913C49.213 40.0913 50.0305 40.2645 50.6956 40.6109C51.3607 40.9434 51.8665 41.4284 52.2129 42.0658C52.5593 42.6893 52.7325 43.4376 52.7325 44.3105V50.6914H50.9242L50.758 48.9247C50.6194 49.2018 50.4393 49.4651 50.2176 49.7145C50.0097 49.9639 49.7603 50.1787 49.4693 50.3589C49.1922 50.539 48.8666 50.6775 48.4924 50.7745C48.1322 50.8854 47.7303 50.9408 47.2869 50.9408ZM47.6818 49.2573C48.1253 49.2573 48.5271 49.1672 48.8874 48.9871C49.2476 48.8069 49.5525 48.5644 49.8019 48.2596C50.0651 47.9409 50.2591 47.5876 50.3838 47.1996C50.5224 46.8116 50.5986 46.4098 50.6125 45.9941V45.9733H48.1391C47.5433 45.9733 47.0583 46.0426 46.6842 46.1811C46.3101 46.3197 46.0399 46.5137 45.8736 46.7631C45.7212 47.0125 45.645 47.3035 45.645 47.6361C45.645 47.9686 45.7212 48.2596 45.8736 48.509C46.026 48.7446 46.2546 48.9316 46.5595 49.0702C46.8782 49.1949 47.2523 49.2573 47.6818 49.2573ZM55.3652 50.6914V40.3407H57.2358L57.4021 42.3152C57.6376 41.8441 57.9355 41.4423 58.2958 41.1097C58.6699 40.7771 59.1064 40.5277 59.6052 40.3615C60.1041 40.1813 60.6652 40.0913 61.2888 40.0913V42.2736H60.6652C60.2218 42.2736 59.7992 42.3291 59.3974 42.4399C59.0094 42.5508 58.6699 42.7309 58.3789 42.9803C58.088 43.2297 57.8593 43.5692 57.693 43.9988C57.5268 44.4283 57.4436 44.9618 57.4436 45.5992V50.6914H55.3652ZM63.2 50.6914V40.3407H65.0498L65.1953 42.1281C65.5279 41.5046 65.999 41.0127 66.6087 40.6524C67.2184 40.2783 67.925 40.0913 68.7287 40.0913C69.5601 40.0913 70.2737 40.2575 70.8695 40.5901C71.4653 40.9226 71.9226 41.4284 72.2413 42.1074C72.5739 42.7863 72.7401 43.6385 72.7401 44.6639V50.6914H70.6617V44.8717C70.6617 43.8741 70.4469 43.1258 70.0174 42.627C69.6017 42.1143 68.985 41.8579 68.1675 41.8579C67.6133 41.8579 67.1144 41.9896 66.671 42.2529C66.2415 42.5161 65.902 42.9041 65.6526 43.4168C65.4032 43.9156 65.2785 44.5322 65.2785 45.2666V50.6914H63.2ZM75.524 50.6914V40.3407H77.6024V50.6914H75.524ZM76.5632 38.3038C76.1752 38.3038 75.8496 38.1791 75.5863 37.9297C75.3231 37.6802 75.1914 37.3685 75.1914 36.9943C75.1914 36.6064 75.3231 36.2946 75.5863 36.059C75.8496 35.8096 76.1752 35.6849 76.5632 35.6849C76.9512 35.6849 77.2768 35.8096 77.5401 36.059C77.8034 36.2946 77.935 36.6064 77.935 36.9943C77.935 37.3685 77.8034 37.6802 77.5401 37.9297C77.2768 38.1791 76.9512 38.3038 76.5632 38.3038ZM80.5746 50.6914V40.3407H82.4245L82.57 42.1281C82.9025 41.5046 83.3736 41.0127 83.9833 40.6524C84.593 40.2783 85.2997 40.0913 86.1033 40.0913C86.9347 40.0913 87.6483 40.2575 88.2442 40.5901C88.84 40.9226 89.2972 41.4284 89.6159 42.1074C89.9485 42.7863 90.1148 43.6385 90.1148 44.6639V50.6914H88.0363V44.8717C88.0363 43.8741 87.8215 43.1258 87.392 42.627C86.9763 42.1143 86.3597 41.8579 85.5422 41.8579C84.9879 41.8579 84.4891 41.9896 84.0457 42.2529C83.6161 42.5161 83.2766 42.9041 83.0272 43.4168C82.7778 43.9156 82.6531 44.5322 82.6531 45.2666V50.6914H80.5746ZM96.9932 55.5134C96.0371 55.5134 95.1918 55.3887 94.4575 55.1393C93.7369 54.9038 93.1688 54.5366 92.7531 54.0377C92.3513 53.5389 92.1504 52.9292 92.1504 52.2087C92.1504 51.8346 92.2335 51.4604 92.3998 51.0863C92.5799 50.7122 92.857 50.3519 93.2312 50.0055C93.6053 49.6591 94.1041 49.3473 94.7277 49.0702L95.8708 50.0055C95.1918 50.2688 94.7277 50.5806 94.4782 50.9408C94.2427 51.3149 94.1249 51.6683 94.1249 52.0008C94.1249 52.4165 94.2496 52.7629 94.499 53.0401C94.7484 53.3172 95.0879 53.525 95.5175 53.6636C95.947 53.8022 96.432 53.8715 96.9724 53.8715C97.5128 53.8715 97.977 53.7952 98.365 53.6428C98.7668 53.4904 99.0786 53.2756 99.3003 52.9985C99.522 52.7214 99.6328 52.3957 99.6328 52.0216C99.6328 51.5921 99.4666 51.2249 99.134 50.92C98.8153 50.6291 98.1918 50.4558 97.2634 50.4004C96.4874 50.345 95.8223 50.2688 95.2681 50.1718C94.7138 50.0748 94.2496 49.957 93.8755 49.8185C93.5014 49.6799 93.1827 49.5275 92.9194 49.3612C92.67 49.1949 92.4483 49.0217 92.2543 48.8416V48.3635L94.3535 46.2227L95.9955 46.7839L93.7716 48.9039L94.208 47.9894C94.3605 48.0864 94.506 48.1834 94.6445 48.2804C94.7831 48.3635 94.9701 48.4397 95.2057 48.509C95.4413 48.5644 95.753 48.6199 96.141 48.6753C96.5428 48.7307 97.0625 48.7861 97.6999 48.8416C98.6282 48.9109 99.3765 49.0771 99.9446 49.3404C100.527 49.6037 100.949 49.957 101.212 50.4004C101.476 50.83 101.607 51.3496 101.607 51.9593C101.607 52.5551 101.441 53.1232 101.109 53.6636C100.79 54.204 100.284 54.6474 99.5913 54.9938C98.9123 55.3402 98.0463 55.5134 96.9932 55.5134ZM96.9724 47.4906C96.0994 47.4906 95.3512 47.3312 94.7277 47.0125C94.118 46.68 93.6469 46.2366 93.3143 45.6823C92.9956 45.1142 92.8363 44.4837 92.8363 43.7909C92.8363 43.0981 92.9956 42.4746 93.3143 41.9203C93.6469 41.366 94.118 40.9226 94.7277 40.5901C95.3512 40.2575 96.0994 40.0913 96.9724 40.0913C97.8454 40.0913 98.5867 40.2575 99.1964 40.5901C99.8199 40.9226 100.291 41.366 100.61 41.9203C100.942 42.4746 101.109 43.0981 101.109 43.7909C101.109 44.4837 100.942 45.1142 100.61 45.6823C100.291 46.2366 99.8199 46.68 99.1964 47.0125C98.5867 47.3312 97.8454 47.4906 96.9724 47.4906ZM96.9724 45.8486C97.6514 45.8486 98.1918 45.6754 98.5936 45.329C98.9954 44.9687 99.1964 44.456 99.1964 43.7909C99.1964 43.1397 98.9954 42.6408 98.5936 42.2944C98.1918 41.9342 97.6514 41.754 96.9724 41.754C96.3073 41.754 95.7669 41.9342 95.3512 42.2944C94.9355 42.6408 94.7277 43.1397 94.7277 43.7909C94.7277 44.456 94.9355 44.9687 95.3512 45.329C95.7669 45.6754 96.3073 45.8486 96.9724 45.8486ZM98.656 41.9619L98.1571 40.3407H102.46V41.754L98.656 41.9619ZM108.599 50.9408C107.74 50.9408 106.978 50.7953 106.313 50.5043C105.648 50.2134 105.114 49.8046 104.712 49.2781C104.31 48.7515 104.068 48.1418 103.985 47.449H106.084C106.167 47.7677 106.313 48.0656 106.52 48.3427C106.728 48.6199 107.005 48.8416 107.352 49.0079C107.698 49.1741 108.114 49.2573 108.599 49.2573C109.056 49.2573 109.43 49.1949 109.721 49.0702C110.012 48.9316 110.227 48.7515 110.366 48.5298C110.504 48.3081 110.573 48.0725 110.573 47.8231C110.573 47.4351 110.476 47.1442 110.283 46.9502C110.102 46.7562 109.825 46.6038 109.451 46.4929C109.091 46.3682 108.654 46.2574 108.142 46.1604C107.698 46.0634 107.255 45.9456 106.811 45.807C106.368 45.6685 105.966 45.4883 105.606 45.2666C105.246 45.0449 104.955 44.7678 104.733 44.4352C104.511 44.1027 104.4 43.6939 104.4 43.2089C104.4 42.6131 104.56 42.0796 104.879 41.6085C105.197 41.1374 105.648 40.7702 106.23 40.5069C106.811 40.2298 107.504 40.0913 108.308 40.0913C109.458 40.0913 110.386 40.3684 111.093 40.9226C111.814 41.463 112.229 42.239 112.34 43.2505H110.324C110.269 42.7933 110.061 42.433 109.701 42.1697C109.354 41.9064 108.883 41.7748 108.287 41.7748C107.705 41.7748 107.255 41.8926 106.936 42.1281C106.631 42.3637 106.479 42.6685 106.479 43.0427C106.479 43.2921 106.569 43.5138 106.749 43.7078C106.943 43.8879 107.213 44.0473 107.56 44.1858C107.92 44.3105 108.343 44.4214 108.828 44.5184C109.52 44.6708 110.158 44.8509 110.74 45.0588C111.322 45.2528 111.793 45.5507 112.153 45.9525C112.513 46.3543 112.694 46.9225 112.694 47.6569C112.707 48.3081 112.541 48.8831 112.195 49.382C111.862 49.8669 111.391 50.248 110.781 50.5251C110.172 50.8023 109.444 50.9408 108.599 50.9408Z" fill="white"/>
<rect width="47.5077" height="47.5077" rx="23.7538" transform="matrix(1 0 0 -1 281.944 77.1992)" fill="#1A9BFC"/>
<g clip-path="url(#clip0_3236_1459)">
<path d="M305.698 42.5586V64.333" stroke="white" stroke-width="1.97949" stroke-linecap="round" stroke-linejoin="round"/>
<path d="M310.646 46.5195H303.223C302.305 46.5195 301.424 46.8845 300.774 47.5341C300.124 48.1838 299.759 49.0649 299.759 49.9836C299.759 50.9024 300.124 51.7835 300.774 52.4331C301.424 53.0828 302.305 53.4477 303.223 53.4477H308.172C309.091 53.4477 309.972 53.8127 310.622 54.4623C311.271 55.112 311.636 55.9931 311.636 56.9118C311.636 57.8306 311.271 58.7117 310.622 59.3613C309.972 60.011 309.091 60.3759 308.172 60.3759H299.759" stroke="white" stroke-width="1.97949" stroke-linecap="round" stroke-linejoin="round"/>
</g>
<path d="M37.5879 136.302V111.97H39.4724V136.302H37.5879ZM38.7518 134.223C37.3477 134.223 36.1099 133.974 35.0383 133.475C33.9667 132.958 33.1354 132.237 32.5442 131.313C31.9529 130.39 31.6481 129.309 31.6296 128.071H34.5672C34.5672 128.773 34.7242 129.42 35.0383 130.011C35.3709 130.584 35.842 131.045 36.4517 131.396C37.0798 131.729 37.8465 131.895 38.7518 131.895C39.5278 131.895 40.1929 131.775 40.7471 131.535C41.3199 131.276 41.754 130.925 42.0496 130.482C42.3637 130.02 42.5208 129.494 42.5208 128.902C42.5208 128.2 42.3637 127.628 42.0496 127.184C41.7356 126.741 41.3106 126.38 40.7749 126.103C40.2391 125.808 39.6294 125.549 38.9458 125.327C38.2622 125.106 37.5509 124.875 36.8119 124.635C35.2785 124.099 34.133 123.434 33.3755 122.639C32.6181 121.845 32.2393 120.801 32.2393 119.508C32.2393 118.436 32.4887 117.503 32.9876 116.709C33.5049 115.914 34.2346 115.295 35.1769 114.852C36.1191 114.39 37.2184 114.159 38.4747 114.159C39.7495 114.159 40.8488 114.39 41.7725 114.852C42.7148 115.314 43.4538 115.951 43.9895 116.764C44.5253 117.577 44.8025 118.528 44.8209 119.619H41.8834C41.8834 119.083 41.7448 118.584 41.4677 118.122C41.209 117.642 40.821 117.254 40.3037 116.958C39.7864 116.644 39.149 116.487 38.3916 116.487C37.7634 116.468 37.1999 116.57 36.7011 116.792C36.2022 117.014 35.805 117.337 35.5094 117.762C35.2323 118.168 35.0937 118.676 35.0937 119.286C35.0937 119.859 35.2138 120.33 35.454 120.699C35.7127 121.05 36.0729 121.355 36.5348 121.614C37.0152 121.872 37.5786 122.113 38.2253 122.334C38.8719 122.556 39.5924 122.805 40.3869 123.083C41.3291 123.397 42.179 123.785 42.9365 124.247C43.6939 124.69 44.2944 125.263 44.7378 125.965C45.1812 126.667 45.4029 127.581 45.4029 128.708C45.4029 129.651 45.1535 130.547 44.6547 131.396C44.1558 132.228 43.4168 132.911 42.4376 133.447C41.4584 133.965 40.2298 134.223 38.7518 134.223ZM54.7469 134.223C53.4906 134.223 52.419 133.974 51.5322 133.475C50.6454 132.976 49.9433 132.32 49.426 131.507C48.9272 130.676 48.6223 129.771 48.5115 128.791H51.0888C51.2551 129.771 51.6615 130.528 52.3082 131.064C52.9548 131.6 53.7862 131.868 54.8023 131.868C55.7076 131.868 56.5113 131.59 57.2133 131.036C57.9339 130.482 58.5066 129.632 58.9315 128.487C59.3749 127.341 59.6243 125.9 59.6798 124.163C59.6798 124.126 59.6798 124.09 59.6798 124.053C59.6798 124.016 59.6798 123.979 59.6798 123.942C59.3842 124.496 58.9685 125.004 58.4327 125.466C57.9154 125.909 57.3057 126.27 56.6036 126.547C55.9201 126.805 55.1441 126.935 54.2758 126.935C53.2042 126.935 52.1788 126.685 51.1996 126.186C50.2389 125.669 49.4537 124.939 48.8441 123.997C48.2528 123.055 47.9572 121.956 47.9572 120.699C47.9572 119.572 48.2251 118.51 48.7609 117.512C49.3152 116.515 50.1004 115.711 51.1165 115.101C52.1326 114.473 53.3243 114.159 54.6915 114.159C56.1325 114.159 57.3334 114.427 58.2941 114.963C59.2733 115.499 60.0585 116.21 60.6497 117.097C61.2409 117.983 61.6659 118.981 61.9245 120.09C62.2016 121.198 62.3402 122.325 62.3402 123.471C62.3402 125.595 62.0354 127.47 61.4257 129.096C60.8345 130.704 59.9754 131.96 58.8484 132.865C57.7214 133.771 56.3542 134.223 54.7469 134.223ZM54.8854 124.579C55.6984 124.579 56.4189 124.394 57.047 124.025C57.6752 123.655 58.174 123.166 58.5435 122.556C58.9315 121.946 59.1255 121.281 59.1255 120.561C59.1255 119.803 58.9315 119.12 58.5435 118.51C58.174 117.9 57.6752 117.429 57.047 117.097C56.4189 116.746 55.6984 116.57 54.8854 116.57C54.0725 116.57 53.352 116.746 52.7238 117.097C52.0957 117.448 51.5969 117.919 51.2274 118.51C50.8763 119.101 50.7008 119.794 50.7008 120.588C50.7008 121.383 50.8763 122.085 51.2274 122.695C51.5969 123.286 52.0957 123.748 52.7238 124.08C53.3705 124.413 54.091 124.579 54.8854 124.579ZM71.441 134.223C70.1847 134.223 69.0485 134.001 68.0324 133.558C67.0162 133.096 66.2033 132.413 65.5936 131.507C64.984 130.584 64.6606 129.429 64.6237 128.043H67.395C67.4134 128.745 67.5797 129.383 67.8938 129.955C68.2264 130.528 68.6882 130.99 69.2794 131.341C69.8706 131.674 70.5912 131.84 71.441 131.84C72.254 131.84 72.9375 131.683 73.4918 131.369C74.0645 131.055 74.4987 130.63 74.7943 130.094C75.0899 129.558 75.2377 128.958 75.2377 128.293C75.2377 127.461 75.0345 126.787 74.628 126.27C74.24 125.734 73.7043 125.337 73.0207 125.078C72.3371 124.801 71.5888 124.662 70.7759 124.662H69.3349V122.362H70.7759C71.9029 122.362 72.8082 122.094 73.4918 121.558C74.1754 121.023 74.5172 120.274 74.5172 119.314C74.5172 118.501 74.2493 117.836 73.7135 117.318C73.1962 116.801 72.4295 116.542 71.4133 116.542C70.4157 116.542 69.6212 116.838 69.03 117.429C68.4388 118.02 68.097 118.769 68.0047 119.674H65.2611C65.3165 118.584 65.6029 117.623 66.1202 116.792C66.6375 115.942 67.3488 115.295 68.2541 114.852C69.1778 114.39 70.2402 114.159 71.441 114.159C72.7158 114.159 73.7874 114.39 74.6557 114.852C75.5241 115.295 76.1799 115.896 76.6233 116.653C77.0667 117.411 77.2884 118.233 77.2884 119.12C77.2884 119.803 77.1591 120.441 76.9005 121.032C76.6603 121.605 76.3 122.103 75.8197 122.528C75.3578 122.953 74.7851 123.249 74.1015 123.415C74.859 123.563 75.5241 123.859 76.0968 124.302C76.688 124.727 77.1499 125.281 77.4824 125.965C77.815 126.648 77.9813 127.434 77.9813 128.32C77.9813 129.373 77.7319 130.353 77.233 131.258C76.7342 132.145 75.9952 132.865 75.016 133.42C74.0553 133.955 72.8636 134.223 71.441 134.223ZM79.728 137.299L81.3354 130.898H84.1067L81.5848 137.299H79.728ZM95.6168 133.891V129.928H85.8619V127.766L94.924 114.492H98.3604V127.517H101.132V129.928H98.3604V133.891H95.6168ZM88.8826 127.517H95.7554V117.263H95.7276L88.8826 127.517ZM109.979 134.223C108.723 134.223 107.587 134.001 106.571 133.558C105.554 133.096 104.741 132.413 104.132 131.507C103.522 130.584 103.199 129.429 103.162 128.043H105.933C105.952 128.745 106.118 129.383 106.432 129.955C106.764 130.528 107.226 130.99 107.818 131.341C108.409 131.674 109.129 131.84 109.979 131.84C110.792 131.84 111.476 131.683 112.03 131.369C112.603 131.055 113.037 130.63 113.332 130.094C113.628 129.558 113.776 128.958 113.776 128.293C113.776 127.461 113.573 126.787 113.166 126.27C112.778 125.734 112.242 125.337 111.559 125.078C110.875 124.801 110.127 124.662 109.314 124.662H107.873V122.362H109.314C110.441 122.362 111.346 122.094 112.03 121.558C112.714 121.023 113.055 120.274 113.055 119.314C113.055 118.501 112.787 117.836 112.252 117.318C111.734 116.801 110.968 116.542 109.951 116.542C108.954 116.542 108.159 116.838 107.568 117.429C106.977 118.02 106.635 118.769 106.543 119.674H103.799C103.855 118.584 104.141 117.623 104.658 116.792C105.176 115.942 105.887 115.295 106.792 114.852C107.716 114.39 108.778 114.159 109.979 114.159C111.254 114.159 112.326 114.39 113.194 114.852C114.062 115.295 114.718 115.896 115.161 116.653C115.605 117.411 115.827 118.233 115.827 119.12C115.827 119.803 115.697 120.441 115.439 121.032C115.198 121.605 114.838 122.103 114.358 122.528C113.896 122.953 113.323 123.249 112.64 123.415C113.397 123.563 114.062 123.859 114.635 124.302C115.226 124.727 115.688 125.281 116.021 125.965C116.353 126.648 116.519 127.434 116.519 128.32C116.519 129.373 116.27 130.353 115.771 131.258C115.272 132.145 114.533 132.865 113.554 133.42C112.593 133.955 111.402 134.223 109.979 134.223ZM126.414 134.223C125.12 134.223 123.957 133.992 122.922 133.53C121.906 133.05 121.093 132.385 120.483 131.535C119.874 130.685 119.569 129.697 119.569 128.57C119.569 127.775 119.716 127.046 120.012 126.38C120.326 125.697 120.751 125.106 121.287 124.607C121.841 124.108 122.488 123.748 123.227 123.526C122.229 123.138 121.453 122.565 120.899 121.808C120.345 121.05 120.068 120.219 120.068 119.314C120.068 118.371 120.317 117.512 120.816 116.736C121.315 115.96 122.035 115.342 122.977 114.88C123.92 114.399 125.065 114.159 126.414 114.159C127.762 114.159 128.908 114.399 129.85 114.88C130.811 115.342 131.541 115.96 132.039 116.736C132.538 117.512 132.788 118.371 132.788 119.314C132.788 120.219 132.501 121.06 131.929 121.836C131.374 122.593 130.608 123.157 129.628 123.526C130.367 123.748 131.005 124.108 131.541 124.607C132.095 125.106 132.52 125.697 132.815 126.38C133.129 127.046 133.287 127.775 133.287 128.57C133.287 129.697 132.982 130.685 132.372 131.535C131.762 132.385 130.94 133.05 129.906 133.53C128.871 133.992 127.707 134.223 126.414 134.223ZM126.414 131.84C127.799 131.84 128.825 131.526 129.49 130.898C130.173 130.251 130.515 129.41 130.515 128.376C130.515 127.212 130.146 126.325 129.407 125.715C128.668 125.106 127.67 124.801 126.414 124.801C125.157 124.801 124.16 125.106 123.421 125.715C122.682 126.325 122.312 127.212 122.312 128.376C122.312 129.41 122.654 130.251 123.338 130.898C124.04 131.526 125.065 131.84 126.414 131.84ZM126.414 122.612C127.522 122.612 128.4 122.325 129.046 121.752C129.693 121.18 130.016 120.45 130.016 119.563C130.016 118.547 129.693 117.78 129.046 117.263C128.418 116.746 127.541 116.487 126.414 116.487C125.324 116.487 124.455 116.746 123.809 117.263C123.181 117.78 122.867 118.547 122.867 119.563C122.867 120.45 123.181 121.18 123.809 121.752C124.437 122.325 125.305 122.612 126.414 122.612ZM137.734 134.029C137.198 134.029 136.754 133.863 136.403 133.53C136.071 133.179 135.905 132.764 135.905 132.283C135.905 131.784 136.071 131.369 136.403 131.036C136.754 130.685 137.198 130.51 137.734 130.51C138.251 130.51 138.676 130.685 139.008 131.036C139.341 131.369 139.507 131.784 139.507 132.283C139.507 132.764 139.341 133.179 139.008 133.53C138.676 133.863 138.251 134.029 137.734 134.029ZM143.32 133.891L150.886 116.875H140.632V114.492H153.713V116.515L146.23 133.891H143.32ZM162.706 134.223C161.412 134.223 160.248 133.992 159.214 133.53C158.198 133.05 157.385 132.385 156.775 131.535C156.165 130.685 155.861 129.697 155.861 128.57C155.861 127.775 156.008 127.046 156.304 126.38C156.618 125.697 157.043 125.106 157.579 124.607C158.133 124.108 158.78 123.748 159.519 123.526C158.521 123.138 157.745 122.565 157.191 121.808C156.637 121.05 156.359 120.219 156.359 119.314C156.359 118.371 156.609 117.512 157.108 116.736C157.606 115.96 158.327 115.342 159.269 114.88C160.211 114.399 161.357 114.159 162.706 114.159C164.054 114.159 165.2 114.399 166.142 114.88C167.103 115.342 167.833 115.96 168.331 116.736C168.83 117.512 169.08 118.371 169.08 119.314C169.08 120.219 168.793 121.06 168.22 121.836C167.666 122.593 166.9 123.157 165.92 123.526C166.659 123.748 167.297 124.108 167.833 124.607C168.387 125.106 168.812 125.697 169.107 126.38C169.421 127.046 169.578 127.775 169.578 128.57C169.578 129.697 169.274 130.685 168.664 131.535C168.054 132.385 167.232 133.05 166.197 133.53C165.163 133.992 163.999 134.223 162.706 134.223ZM162.706 131.84C164.091 131.84 165.117 131.526 165.782 130.898C166.465 130.251 166.807 129.41 166.807 128.376C166.807 127.212 166.438 126.325 165.699 125.715C164.96 125.106 163.962 124.801 162.706 124.801C161.449 124.801 160.452 125.106 159.713 125.715C158.974 126.325 158.604 127.212 158.604 128.376C158.604 129.41 158.946 130.251 159.63 130.898C160.332 131.526 161.357 131.84 162.706 131.84ZM162.706 122.612C163.814 122.612 164.692 122.325 165.338 121.752C165.985 121.18 166.308 120.45 166.308 119.563C166.308 118.547 165.985 117.78 165.338 117.263C164.71 116.746 163.833 116.487 162.706 116.487C161.616 116.487 160.747 116.746 160.101 117.263C159.472 117.78 159.158 118.547 159.158 119.563C159.158 120.45 159.472 121.18 160.101 121.752C160.729 122.325 161.597 122.612 162.706 122.612Z" fill="white"/>
<path d="M31.7365 158.891V147.805H33.2884L37.2157 155.549L41.143 147.805H42.7108V158.891H41.3806V150.181L37.7225 157.339H36.7248L33.0667 150.213V158.891H31.7365ZM48.5665 159.081C47.8275 159.081 47.1624 158.912 46.5712 158.574C45.98 158.226 45.5102 157.74 45.1618 157.117C44.8239 156.494 44.655 155.76 44.655 154.916C44.655 154.071 44.8292 153.338 45.1776 152.715C45.526 152.092 45.9958 151.611 46.587 151.274C47.1888 150.925 47.8592 150.751 48.5982 150.751C49.3477 150.751 50.0181 150.925 50.6093 151.274C51.2005 151.611 51.665 152.092 52.0029 152.715C52.3407 153.338 52.5096 154.071 52.5096 154.916C52.5096 155.76 52.3354 156.494 51.987 157.117C51.6492 157.74 51.1794 158.226 50.5777 158.574C49.9864 158.912 49.3161 159.081 48.5665 159.081ZM48.5665 157.94C49.031 157.94 49.4586 157.83 49.8492 157.608C50.2398 157.376 50.5513 157.038 50.7835 156.594C51.0263 156.14 51.1477 155.581 51.1477 154.916C51.1477 154.24 51.0316 153.681 50.7994 153.237C50.5671 152.783 50.2557 152.445 49.865 152.224C49.4744 152.002 49.0521 151.891 48.5982 151.891C48.1548 151.891 47.7325 152.002 47.3313 152.224C46.9407 152.445 46.624 152.783 46.3811 153.237C46.1383 153.681 46.0169 154.24 46.0169 154.916C46.0169 155.581 46.1383 156.14 46.3811 156.594C46.624 157.038 46.9354 157.376 47.3155 157.608C47.7061 157.83 48.1231 157.94 48.5665 157.94ZM54.3747 158.891V150.941H55.5782L55.6574 152.335C55.9108 151.838 56.2697 151.453 56.7342 151.179C57.2093 150.893 57.7477 150.751 58.3495 150.751C58.9724 150.751 59.5108 150.872 59.9648 151.115C60.4187 151.358 60.7724 151.733 61.0258 152.24C61.2791 152.746 61.4058 153.385 61.4058 154.156V158.891H60.0756V154.298C60.0756 153.496 59.9014 152.894 59.553 152.493C59.2046 152.092 58.7032 151.891 58.0486 151.891C57.6052 151.891 57.204 152.002 56.8451 152.224C56.4967 152.435 56.2169 152.746 56.0058 153.158C55.8052 153.559 55.7049 154.061 55.7049 154.662V158.891H54.3747ZM66.588 158.891C66.1129 158.891 65.7012 158.817 65.3528 158.669C65.0044 158.521 64.7352 158.273 64.5452 157.925C64.3657 157.566 64.2759 157.085 64.2759 156.484V152.065H62.8982V150.941H64.2759L64.4501 149.009H65.6062V150.941H67.934V152.065H65.6062V156.484C65.6062 156.98 65.7065 157.318 65.907 157.497C66.1076 157.666 66.4613 157.75 66.9681 157.75H67.8232V158.891H66.588ZM69.6384 158.891V147.489H70.9686V152.287C71.2431 151.801 71.6179 151.427 72.0929 151.163C72.568 150.888 73.0959 150.751 73.6765 150.751C74.2889 150.751 74.8167 150.872 75.2601 151.115C75.7141 151.358 76.0625 151.733 76.3053 152.24C76.5587 152.746 76.6854 153.39 76.6854 154.172V158.891H75.371V154.314C75.371 153.512 75.2021 152.91 74.8642 152.509C74.5264 152.097 74.0355 151.891 73.3915 151.891C72.9375 151.891 72.5258 152.002 72.1563 152.224C71.7973 152.435 71.507 152.752 71.2853 153.174C71.0742 153.586 70.9686 154.092 70.9686 154.694V158.891H69.6384ZM78.7317 158.891V147.489H80.0619V158.891H78.7317ZM83.1286 162.375L85.0764 158.004H84.6172L81.4975 150.941H82.9386L85.5356 157.006L88.2753 150.941H89.653L84.5221 162.375H83.1286ZM95.2635 158.891V150.941H96.467L96.5778 152.461C96.7573 152.092 96.9843 151.78 97.2588 151.527C97.5438 151.274 97.8817 151.084 98.2723 150.957C98.6629 150.82 99.1063 150.751 99.6025 150.751V152.145H99.1433C98.8054 152.145 98.4834 152.192 98.1773 152.287C97.8711 152.372 97.5966 152.514 97.3538 152.715C97.1215 152.905 96.9368 153.174 96.7995 153.522C96.6623 153.86 96.5937 154.288 96.5937 154.805V158.891H95.2635ZM104.331 159.081C103.592 159.081 102.932 158.906 102.351 158.558C101.771 158.21 101.311 157.724 100.974 157.101C100.646 156.478 100.483 155.75 100.483 154.916C100.483 154.071 100.646 153.338 100.974 152.715C101.301 152.092 101.755 151.611 102.336 151.274C102.927 150.925 103.602 150.751 104.363 150.751C105.144 150.751 105.809 150.925 106.358 151.274C106.907 151.611 107.324 152.065 107.609 152.635C107.905 153.195 108.052 153.813 108.052 154.488C108.052 154.594 108.052 154.705 108.052 154.821C108.052 154.937 108.047 155.069 108.036 155.217H101.48V154.187H106.738C106.706 153.459 106.463 152.894 106.009 152.493C105.566 152.081 105.007 151.875 104.331 151.875C103.887 151.875 103.47 151.976 103.08 152.176C102.689 152.377 102.372 152.678 102.13 153.079C101.897 153.469 101.781 153.96 101.781 154.552V154.995C101.781 155.65 101.903 156.199 102.146 156.642C102.388 157.075 102.7 157.402 103.08 157.624C103.47 157.845 103.887 157.956 104.331 157.956C104.89 157.956 105.35 157.835 105.709 157.592C106.078 157.339 106.347 156.996 106.516 156.563H107.831C107.693 157.048 107.466 157.481 107.15 157.861C106.833 158.231 106.437 158.526 105.962 158.748C105.497 158.97 104.954 159.081 104.331 159.081ZM111.803 158.891L108.794 150.941H110.187L112.579 157.608L115.002 150.941H116.363L113.339 158.891H111.803ZM120.955 159.081C120.216 159.081 119.557 158.906 118.976 158.558C118.395 158.21 117.936 157.724 117.598 157.101C117.271 156.478 117.107 155.75 117.107 154.916C117.107 154.071 117.271 153.338 117.598 152.715C117.926 152.092 118.38 151.611 118.96 151.274C119.551 150.925 120.227 150.751 120.987 150.751C121.768 150.751 122.433 150.925 122.982 151.274C123.531 151.611 123.948 152.065 124.234 152.635C124.529 153.195 124.677 153.813 124.677 154.488C124.677 154.594 124.677 154.705 124.677 154.821C124.677 154.937 124.672 155.069 124.661 155.217H118.105V154.187H123.363C123.331 153.459 123.088 152.894 122.634 152.493C122.191 152.081 121.631 151.875 120.955 151.875C120.512 151.875 120.095 151.976 119.704 152.176C119.314 152.377 118.997 152.678 118.754 153.079C118.522 153.469 118.406 153.96 118.406 154.552V154.995C118.406 155.65 118.527 156.199 118.77 156.642C119.013 157.075 119.324 157.402 119.704 157.624C120.095 157.845 120.512 157.956 120.955 157.956C121.515 157.956 121.974 157.835 122.333 157.592C122.703 157.339 122.972 156.996 123.141 156.563H124.455C124.318 157.048 124.091 157.481 123.774 157.861C123.458 158.231 123.062 158.526 122.587 158.748C122.122 158.97 121.578 159.081 120.955 159.081ZM126.44 158.891V150.941H127.644L127.723 152.335C127.976 151.838 128.335 151.453 128.8 151.179C129.275 150.893 129.813 150.751 130.415 150.751C131.038 150.751 131.576 150.872 132.03 151.115C132.484 151.358 132.838 151.733 133.091 152.24C133.345 152.746 133.472 153.385 133.472 154.156V158.891H132.141V154.298C132.141 153.496 131.967 152.894 131.619 152.493C131.27 152.092 130.769 151.891 130.114 151.891C129.671 151.891 129.27 152.002 128.911 152.224C128.562 152.435 128.283 152.746 128.071 153.158C127.871 153.559 127.771 154.061 127.771 154.662V158.891H126.44ZM138.416 159.081C137.804 159.081 137.265 158.959 136.801 158.716C136.347 158.474 135.993 158.099 135.74 157.592C135.497 157.085 135.376 156.447 135.376 155.676V150.941H136.706V155.533C136.706 156.336 136.88 156.938 137.228 157.339C137.577 157.74 138.073 157.94 138.717 157.94C139.16 157.94 139.562 157.835 139.921 157.624C140.28 157.402 140.559 157.085 140.76 156.674C140.971 156.262 141.077 155.76 141.077 155.169V150.941H142.407V158.891H141.203L141.124 157.497C140.871 157.993 140.506 158.384 140.031 158.669C139.556 158.943 139.018 159.081 138.416 159.081ZM148.112 159.081C147.373 159.081 146.713 158.906 146.132 158.558C145.551 158.21 145.092 157.724 144.754 157.101C144.427 156.478 144.263 155.75 144.263 154.916C144.263 154.071 144.427 153.338 144.754 152.715C145.082 152.092 145.536 151.611 146.116 151.274C146.707 150.925 147.383 150.751 148.143 150.751C148.924 150.751 149.59 150.925 150.139 151.274C150.688 151.611 151.105 152.065 151.39 152.635C151.685 153.195 151.833 153.813 151.833 154.488C151.833 154.594 151.833 154.705 151.833 154.821C151.833 154.937 151.828 155.069 151.817 155.217H145.261V154.187H150.519C150.487 153.459 150.244 152.894 149.79 152.493C149.347 152.081 148.787 151.875 148.112 151.875C147.668 151.875 147.251 151.976 146.861 152.176C146.47 152.377 146.153 152.678 145.91 153.079C145.678 153.469 145.562 153.96 145.562 154.552V154.995C145.562 155.65 145.683 156.199 145.926 156.642C146.169 157.075 146.48 157.402 146.861 157.624C147.251 157.845 147.668 157.956 148.112 157.956C148.671 157.956 149.13 157.835 149.489 157.592C149.859 157.339 150.128 156.996 150.297 156.563H151.611C151.474 157.048 151.247 157.481 150.93 157.861C150.614 158.231 150.218 158.526 149.743 158.748C149.278 158.97 148.734 159.081 148.112 159.081Z" fill="#9FB8EF"/>
<defs>
<clipPath id="clip0_3236_1459">
<rect width="23.7538" height="23.7538" fill="white" transform="translate(293.821 41.5703)"/>
</clipPath>
</defs>
</svg>
