<svg width="416" height="219" viewBox="0 0 416 219" fill="none" xmlns="http://www.w3.org/2000/svg">
<rect x="1.50543" y="0.573298" width="413.921" height="216.901" rx="22.3586" fill="white"/>
<rect x="1.50543" y="0.573298" width="413.921" height="216.901" rx="22.3586" stroke="#DBDBDB" stroke-width="1.1466"/>
<path d="M45.9797 61.3984V57.4633H36.2932V55.3169L45.2917 42.1356H48.704V55.0692H51.4558V57.4633H48.704V61.3984H45.9797ZM39.2927 55.0692H46.1173V44.915L39.2927 55.0692ZM60.2413 61.7287C58.9938 61.7287 57.8655 61.5085 56.8565 61.0682C55.8475 60.6096 55.0403 59.9308 54.4349 59.0319C53.8478 58.1146 53.536 56.968 53.4993 55.5921H56.2236C56.2419 56.2892 56.407 56.9221 56.7189 57.4908C57.0491 58.0595 57.5078 58.5182 58.0948 58.8668C58.6819 59.197 59.3974 59.3621 60.2413 59.3621C61.0485 59.3621 61.7272 59.2061 62.2776 58.8943C62.8463 58.5824 63.2774 58.1604 63.571 57.6284C63.8645 57.0964 64.0113 56.5002 64.0113 55.8397C64.0113 55.0142 63.8095 54.3446 63.4059 53.8309C63.0206 53.2989 62.4886 52.9044 61.8098 52.6476C61.131 52.3724 60.388 52.2348 59.5808 52.2348H58.1499V49.9508H59.5808C60.7182 49.9508 61.6172 49.6848 62.2776 49.1528C62.9564 48.6208 63.2958 47.8778 63.2958 46.9238C63.2958 46.1166 63.0298 45.4562 62.4978 44.9425C61.9841 44.4288 61.2227 44.172 60.2137 44.172C59.2231 44.172 58.4342 44.4655 57.8472 45.0526C57.2601 45.6396 56.9299 46.3826 56.8565 47.2815H54.1047C54.1597 46.1991 54.4441 45.2452 54.9577 44.4196C55.4714 43.5757 56.1777 42.9336 57.0767 42.4933C57.9939 42.0347 59.0488 41.8054 60.2413 41.8054C61.5071 41.8054 62.5711 42.0347 63.4334 42.4933C64.2956 42.9336 64.9469 43.5299 65.3872 44.282C65.8275 45.0342 66.0476 45.8506 66.0476 46.7312C66.0476 47.41 65.9192 48.0429 65.6624 48.6299C65.4239 49.1986 65.0661 49.694 64.5892 50.1159C64.1305 50.5379 63.5618 50.8314 62.883 50.9965C63.6352 51.1433 64.2956 51.4368 64.8643 51.8771C65.4514 52.299 65.91 52.8494 66.2403 53.5282C66.5705 54.207 66.7356 54.9867 66.7356 55.8673C66.7356 56.913 66.4879 57.8853 65.9926 58.7842C65.5156 59.6648 64.791 60.3803 63.8186 60.9306C62.8463 61.4626 61.6539 61.7287 60.2413 61.7287ZM68.4701 64.7832L70.0662 58.4265H72.818L70.3138 64.7832H68.4701ZM75.0012 61.3984V59.4171C76.267 58.4265 77.4687 57.4266 78.6061 56.4176C79.7619 55.4086 80.7892 54.4088 81.6881 53.4181C82.5871 52.4091 83.2934 51.4276 83.8071 50.4737C84.3207 49.5013 84.5776 48.5749 84.5776 47.6943C84.5776 47.0706 84.4675 46.4927 84.2473 45.9607C84.0272 45.4286 83.6786 44.9975 83.2016 44.6673C82.743 44.3187 82.1101 44.1444 81.3029 44.1444C80.514 44.1444 79.8536 44.3187 79.3216 44.6673C78.8079 45.0159 78.4135 45.4837 78.1383 46.0707C77.8814 46.6394 77.753 47.2724 77.753 47.9695H75.1113C75.1296 46.6486 75.414 45.5295 75.9643 44.6123C76.5147 43.695 77.2577 42.9978 78.1933 42.5209C79.1289 42.0439 80.1838 41.8054 81.3579 41.8054C82.5687 41.8054 83.6144 42.0347 84.495 42.4933C85.3939 42.9336 86.0911 43.5849 86.5864 44.4471C87.0817 45.291 87.3294 46.3276 87.3294 47.5567C87.3294 48.4373 87.1551 49.3179 86.8065 50.1985C86.458 51.0607 85.981 51.9046 85.3756 52.7302C84.7885 53.5557 84.1281 54.3537 83.3943 55.1243C82.6788 55.8764 81.9358 56.5919 81.1653 57.2707C80.3948 57.9495 79.661 58.564 78.9638 59.1144H87.9348V61.3984H75.0012ZM99.2696 61.3984V57.4633H89.5831V55.3169L98.5816 42.1356H101.994V55.0692H104.746V57.4633H101.994V61.3984H99.2696ZM92.5826 55.0692H99.4071V44.915L92.5826 55.0692ZM114.439 61.7287C113.027 61.7287 111.834 61.4626 110.862 60.9306C109.89 60.3986 109.11 59.6923 108.523 58.8117C107.954 57.9311 107.532 56.9405 107.257 55.8397C106.982 54.739 106.844 53.6199 106.844 52.4825C106.844 50.3544 107.138 48.4923 107.725 46.8963C108.33 45.3002 109.192 44.0527 110.311 43.1538C111.449 42.2549 112.806 41.8054 114.384 41.8054C115.632 41.8054 116.696 42.0531 117.576 42.5484C118.475 43.0437 119.182 43.695 119.695 44.5022C120.209 45.3094 120.512 46.2083 120.603 47.199H118.044C117.879 46.2267 117.475 45.4745 116.833 44.9425C116.191 44.4105 115.366 44.1444 114.357 44.1444C113.458 44.1444 112.651 44.4288 111.935 44.9975C111.22 45.5479 110.651 46.3918 110.229 47.5292C109.807 48.6483 109.569 50.0884 109.513 51.8496C109.513 51.8679 109.513 51.8954 109.513 51.9321C109.513 51.9505 109.513 51.978 109.513 52.0147C109.807 51.4643 110.211 50.969 110.724 50.5287C111.238 50.0701 111.843 49.7123 112.54 49.4555C113.256 49.1803 114.026 49.0427 114.852 49.0427C115.934 49.0427 116.953 49.2995 117.907 49.8132C118.861 50.3086 119.631 51.024 120.218 51.9597C120.823 52.8953 121.126 53.9868 121.126 55.2343C121.126 56.3534 120.851 57.4083 120.301 58.3989C119.769 59.3896 118.998 60.1968 117.989 60.8206C116.998 61.426 115.815 61.7287 114.439 61.7287ZM114.274 59.3346C115.063 59.3346 115.769 59.1603 116.393 58.8117C117.035 58.4631 117.53 57.9953 117.879 57.4083C118.228 56.8029 118.402 56.1149 118.402 55.3444C118.402 54.5555 118.228 53.8676 117.879 53.2805C117.53 52.6751 117.035 52.2073 116.393 51.8771C115.769 51.5469 115.054 51.3818 114.247 51.3818C113.458 51.3818 112.742 51.5652 112.1 51.9321C111.476 52.299 110.981 52.7852 110.614 53.3906C110.247 53.9777 110.064 54.6381 110.064 55.3719C110.064 56.1241 110.247 56.8029 110.614 57.4083C110.981 57.9953 111.486 58.4631 112.128 58.8117C112.77 59.1603 113.485 59.3346 114.274 59.3346Z" fill="#11142D"/>
<path d="M39.8798 92.9844V88.1045L35.697 80.1425H37.4398L40.9255 87.1505H40.3935L43.8608 80.1425H45.5852L41.4208 88.1045V92.9844H39.8798ZM49.7164 93.2045C48.8481 93.2045 48.0776 93.0088 47.4049 92.6175C46.7322 92.2139 46.2002 91.6513 45.8088 90.9297C45.4297 90.2081 45.2401 89.3642 45.2401 88.398C45.2401 87.4196 45.4297 86.5757 45.8088 85.8663C46.188 85.1447 46.7139 84.5882 47.3865 84.1969C48.0714 83.7933 48.8603 83.5915 49.7531 83.5915C50.6459 83.5915 51.4103 83.7933 52.0463 84.1969C52.6823 84.5882 53.1654 85.108 53.4956 85.7562C53.8381 86.4044 54.0093 87.1138 54.0093 87.8843C54.0093 88.0066 54.0093 88.1411 54.0093 88.2879C54.0093 88.4224 54.0032 88.5753 53.9909 88.7466H46.3959V87.5541H52.4866C52.4499 86.7102 52.1686 86.0559 51.6427 85.5911C51.129 85.1264 50.4869 84.894 49.7164 84.894C49.1905 84.894 48.7013 85.0102 48.2488 85.2426C47.7963 85.4749 47.4294 85.8174 47.1481 86.2699C46.879 86.7224 46.7445 87.2911 46.7445 87.976V88.4897C46.7445 89.248 46.8851 89.884 47.1664 90.3977C47.4477 90.8991 47.8146 91.2782 48.2671 91.5351C48.7197 91.7797 49.2028 91.902 49.7164 91.902C50.3524 91.902 50.8783 91.7613 51.2941 91.48C51.7222 91.1865 52.0341 90.789 52.2298 90.2876H53.7525C53.5935 90.8502 53.3305 91.3516 52.9636 91.7919C52.5967 92.22 52.138 92.5624 51.5877 92.8193C51.0495 93.0761 50.4258 93.2045 49.7164 93.2045ZM59.0972 93.2045C58.3389 93.2045 57.709 93.0761 57.2076 92.8193C56.7184 92.5624 56.3515 92.22 56.1068 91.7919C55.8622 91.3516 55.7399 90.8808 55.7399 90.3793C55.7399 89.7433 55.8989 89.2113 56.2169 88.7832C56.5471 88.3552 57.0058 88.0311 57.5928 87.8109C58.1921 87.5786 58.8893 87.4624 59.6842 87.4624H62.1425C62.1425 86.8875 62.0508 86.4106 61.8673 86.0314C61.6961 85.6523 61.4393 85.371 61.0968 85.1875C60.7544 84.9918 60.3386 84.894 59.8493 84.894C59.2623 84.894 58.7486 85.0408 58.3083 85.3343C57.8802 85.6278 57.6173 86.062 57.5195 86.6368H55.9417C56.0151 85.9764 56.2353 85.4199 56.6022 84.9674C56.9813 84.5148 57.4583 84.1724 58.0331 83.94C58.608 83.7076 59.2134 83.5915 59.8493 83.5915C60.6932 83.5915 61.3965 83.7504 61.9591 84.0684C62.5339 84.3742 62.962 84.8084 63.2433 85.371C63.5368 85.9213 63.6836 86.5695 63.6836 87.3156V92.9844H62.3076L62.2159 91.3516C62.0936 91.6085 61.9346 91.8531 61.7389 92.0854C61.5555 92.3056 61.3353 92.5013 61.0785 92.6725C60.8339 92.8315 60.5465 92.9599 60.2162 93.0578C59.886 93.1556 59.513 93.2045 59.0972 93.2045ZM59.3357 91.902C59.776 91.902 60.1673 91.8164 60.5098 91.6451C60.8522 91.4617 61.1458 91.2171 61.3904 90.9113C61.6472 90.6056 61.8368 90.2631 61.9591 89.884C62.0814 89.4926 62.1425 89.0951 62.1425 88.6915V88.6548H59.8126C59.2256 88.6548 58.7486 88.7282 58.3817 88.875C58.0148 89.0095 57.7518 89.1991 57.5928 89.4437C57.4338 89.6883 57.3543 89.9757 57.3543 90.3059C57.3543 90.6239 57.4277 90.9052 57.5745 91.1498C57.7335 91.3944 57.9597 91.584 58.2533 91.7185C58.5468 91.8408 58.9076 91.902 59.3357 91.902ZM66.0312 92.9844V83.8116H67.4255L67.5539 85.5728C67.7496 85.1447 68.0064 84.7839 68.3244 84.4904C68.6546 84.1969 69.046 83.9767 69.4985 83.8299C69.951 83.671 70.4647 83.5915 71.0395 83.5915V85.2059H70.5442C70.1406 85.2059 69.7554 85.2609 69.3884 85.371C69.0338 85.4688 68.7158 85.6339 68.4345 85.8663C68.1654 86.0864 67.9514 86.3983 67.7924 86.8019C67.6456 87.2055 67.5722 87.7009 67.5722 88.2879V92.9844H66.0312ZM72.7675 92.9844V79.7756H74.3085V92.9844H72.7675ZM77.8612 97.0204L80.1177 91.957H79.5857L75.9533 83.8116H77.6227L80.6498 90.8196L83.8235 83.8116H85.4196L79.4756 97.0204H77.8612ZM95.4049 93.2045C94.6711 93.2045 94.0167 93.0822 93.4419 92.8376C92.8671 92.5808 92.4084 92.22 92.066 91.7552C91.7235 91.2905 91.5095 90.7462 91.4239 90.1225H93.0016C93.075 90.4527 93.2095 90.7523 93.4052 91.0214C93.6009 91.2905 93.87 91.5045 94.2124 91.6635C94.5549 91.8225 94.9585 91.902 95.4232 91.902C95.8635 91.902 96.2182 91.8408 96.4873 91.7185C96.7686 91.584 96.9765 91.4128 97.111 91.2049C97.2578 90.9847 97.3312 90.7462 97.3312 90.4894C97.3312 90.1102 97.2394 89.8289 97.056 89.6455C96.8847 89.4498 96.6279 89.2969 96.2855 89.1868C95.943 89.0645 95.5333 88.9606 95.0563 88.875C94.6649 88.8016 94.2736 88.7037 93.8822 88.5814C93.5031 88.4591 93.1545 88.3001 92.8365 88.1045C92.5307 87.9088 92.2861 87.6642 92.1027 87.3706C91.9192 87.0771 91.8275 86.7163 91.8275 86.2882C91.8275 85.7623 91.962 85.2976 92.2311 84.894C92.5124 84.4904 92.8976 84.1724 93.3869 83.94C93.8883 83.7076 94.4815 83.5915 95.1664 83.5915C96.1448 83.5915 96.9398 83.8299 97.5513 84.3069C98.1628 84.7839 98.5175 85.4688 98.6153 86.3616H97.0927C97.0437 85.9091 96.8481 85.5544 96.5056 85.2976C96.1754 85.0285 95.7229 84.894 95.148 84.894C94.5732 84.894 94.1329 85.0102 93.8272 85.2426C93.5336 85.4749 93.3869 85.7807 93.3869 86.1598C93.3869 86.3922 93.4725 86.6001 93.6437 86.7836C93.8149 86.967 94.0595 87.126 94.3775 87.2606C94.7077 87.3829 95.1052 87.4929 95.57 87.5908C96.157 87.7009 96.7013 87.8476 97.2027 88.0311C97.7042 88.2145 98.1139 88.4836 98.4319 88.8383C98.7499 89.193 98.9089 89.7005 98.9089 90.361C98.9211 90.9236 98.7805 91.4189 98.4869 91.847C98.1934 92.275 97.7837 92.6113 97.2578 92.856C96.7441 93.0883 96.1265 93.2045 95.4049 93.2045ZM104.137 93.2045C103.379 93.2045 102.749 93.0761 102.247 92.8193C101.758 92.5624 101.391 92.22 101.147 91.7919C100.902 91.3516 100.78 90.8808 100.78 90.3793C100.78 89.7433 100.939 89.2113 101.257 88.7832C101.587 88.3552 102.046 88.0311 102.633 87.8109C103.232 87.5786 103.929 87.4624 104.724 87.4624H107.182C107.182 86.8875 107.091 86.4106 106.907 86.0314C106.736 85.6523 106.479 85.371 106.137 85.1875C105.794 84.9918 105.378 84.894 104.889 84.894C104.302 84.894 103.788 85.0408 103.348 85.3343C102.92 85.6278 102.657 86.062 102.559 86.6368H100.981C101.055 85.9764 101.275 85.4199 101.642 84.9674C102.021 84.5148 102.498 84.1724 103.073 83.94C103.648 83.7076 104.253 83.5915 104.889 83.5915C105.733 83.5915 106.436 83.7504 106.999 84.0684C107.574 84.3742 108.002 84.8084 108.283 85.371C108.577 85.9213 108.723 86.5695 108.723 87.3156V92.9844H107.347L107.256 91.3516C107.133 91.6085 106.974 91.8531 106.779 92.0854C106.595 92.3056 106.375 92.5013 106.118 92.6725C105.874 92.8315 105.586 92.9599 105.256 93.0578C104.926 93.1556 104.553 93.2045 104.137 93.2045ZM104.375 91.902C104.816 91.902 105.207 91.8164 105.55 91.6451C105.892 91.4617 106.186 91.2171 106.43 90.9113C106.687 90.6056 106.877 90.2631 106.999 89.884C107.121 89.4926 107.182 89.0951 107.182 88.6915V88.6548H104.852C104.265 88.6548 103.788 88.7282 103.421 88.875C103.055 89.0095 102.792 89.1991 102.633 89.4437C102.474 89.6883 102.394 89.9757 102.394 90.3059C102.394 90.6239 102.467 90.9052 102.614 91.1498C102.773 91.3944 103 91.584 103.293 91.7185C103.587 91.8408 103.947 91.902 104.375 91.902ZM111.071 92.9844V79.7756H112.612V92.9844H111.071ZM119.247 93.2045C118.378 93.2045 117.608 93.0088 116.935 92.6175C116.263 92.2139 115.731 91.6513 115.339 90.9297C114.96 90.2081 114.77 89.3642 114.77 88.398C114.77 87.4196 114.96 86.5757 115.339 85.8663C115.718 85.1447 116.244 84.5882 116.917 84.1969C117.602 83.7933 118.391 83.5915 119.283 83.5915C120.176 83.5915 120.941 83.7933 121.577 84.1969C122.213 84.5882 122.696 85.108 123.026 85.7562C123.368 86.4044 123.54 87.1138 123.54 87.8843C123.54 88.0066 123.54 88.1411 123.54 88.2879C123.54 88.4224 123.534 88.5753 123.521 88.7466H115.926V87.5541H122.017C121.98 86.7102 121.699 86.0559 121.173 85.5911C120.659 85.1264 120.017 84.894 119.247 84.894C118.721 84.894 118.232 85.0102 117.779 85.2426C117.327 85.4749 116.96 85.8174 116.678 86.2699C116.409 86.7224 116.275 87.2911 116.275 87.976V88.4897C116.275 89.248 116.415 89.884 116.697 90.3977C116.978 90.8991 117.345 91.2782 117.797 91.5351C118.25 91.7797 118.733 91.902 119.247 91.902C119.883 91.902 120.409 91.7613 120.825 91.48C121.253 91.1865 121.564 90.789 121.76 90.2876H123.283C123.124 90.8502 122.861 91.3516 122.494 91.7919C122.127 92.22 121.668 92.5624 121.118 92.8193C120.58 93.0761 119.956 93.2045 119.247 93.2045ZM129.086 93.2045C128.352 93.2045 127.698 93.0822 127.123 92.8376C126.548 92.5808 126.09 92.22 125.747 91.7552C125.405 91.2905 125.191 90.7462 125.105 90.1225H126.683C126.756 90.4527 126.891 90.7523 127.086 91.0214C127.282 91.2905 127.551 91.5045 127.894 91.6635C128.236 91.8225 128.64 91.902 129.105 91.902C129.545 91.902 129.899 91.8408 130.169 91.7185C130.45 91.584 130.658 91.4128 130.792 91.2049C130.939 90.9847 131.012 90.7462 131.012 90.4894C131.012 90.1102 130.921 89.8289 130.737 89.6455C130.566 89.4498 130.309 89.2969 129.967 89.1868C129.624 89.0645 129.215 88.9606 128.738 88.875C128.346 88.8016 127.955 88.7037 127.563 88.5814C127.184 88.4591 126.836 88.3001 126.518 88.1045C126.212 87.9088 125.967 87.6642 125.784 87.3706C125.601 87.0771 125.509 86.7163 125.509 86.2882C125.509 85.7623 125.643 85.2976 125.912 84.894C126.194 84.4904 126.579 84.1724 127.068 83.94C127.57 83.7076 128.163 83.5915 128.848 83.5915C129.826 83.5915 130.621 83.8299 131.233 84.3069C131.844 84.7839 132.199 85.4688 132.297 86.3616H130.774C130.725 85.9091 130.529 85.5544 130.187 85.2976C129.857 85.0285 129.404 84.894 128.829 84.894C128.254 84.894 127.814 85.0102 127.508 85.2426C127.215 85.4749 127.068 85.7807 127.068 86.1598C127.068 86.3922 127.154 86.6001 127.325 86.7836C127.496 86.967 127.741 87.126 128.059 87.2606C128.389 87.3829 128.787 87.4929 129.251 87.5908C129.838 87.7009 130.383 87.8476 130.884 88.0311C131.385 88.2145 131.795 88.4836 132.113 88.8383C132.431 89.193 132.59 89.7005 132.59 90.361C132.602 90.9236 132.462 91.4189 132.168 91.847C131.875 92.275 131.465 92.6113 130.939 92.856C130.425 93.0883 129.808 93.2045 129.086 93.2045Z" fill="#777E89"/>
<circle cx="41.0631" cy="139.647" r="5.73298" fill="#1A9BFC"/>
<path d="M57.1245 145.648V144.566C58.0051 143.881 58.8307 143.19 59.6012 142.493C60.3839 141.796 61.081 141.105 61.6926 140.42C62.3041 139.723 62.7811 139.044 63.1235 138.384C63.4782 137.723 63.6555 137.087 63.6555 136.476C63.6555 136.023 63.576 135.607 63.417 135.228C63.258 134.837 63.0073 134.519 62.6649 134.274C62.3224 134.03 61.8577 133.907 61.2706 133.907C60.6958 133.907 60.2188 134.036 59.8397 134.293C59.4605 134.537 59.1731 134.867 58.9774 135.283C58.794 135.687 58.7022 136.133 58.7022 136.622H57.2162C57.2285 135.779 57.4058 135.057 57.7483 134.458C58.1029 133.846 58.586 133.381 59.1976 133.063C59.8091 132.745 60.5062 132.586 61.289 132.586C62.0595 132.586 62.7383 132.733 63.3253 133.027C63.9124 133.308 64.371 133.73 64.7012 134.293C65.0315 134.855 65.1966 135.564 65.1966 136.421C65.1966 137.02 65.0743 137.619 64.8297 138.218C64.585 138.818 64.2548 139.405 63.839 139.98C63.4232 140.542 62.9584 141.087 62.4447 141.612C61.9433 142.138 61.4296 142.634 60.9037 143.098C60.3778 143.563 59.8764 143.985 59.3994 144.364H65.6369V145.648H57.1245ZM72.6532 145.869C71.5157 145.869 70.5373 145.593 69.7179 145.043C68.9107 144.48 68.2869 143.704 67.8466 142.713C67.4063 141.71 67.1862 140.548 67.1862 139.227C67.1862 137.907 67.4063 136.751 67.8466 135.76C68.2869 134.757 68.9107 133.981 69.7179 133.43C70.5373 132.868 71.5157 132.586 72.6532 132.586C73.7784 132.586 74.7446 132.868 75.5518 133.43C76.359 133.981 76.9766 134.757 77.4047 135.76C77.845 136.751 78.0651 137.907 78.0651 139.227C78.0651 140.548 77.845 141.71 77.4047 142.713C76.9766 143.704 76.359 144.48 75.5518 145.043C74.7446 145.593 73.7784 145.869 72.6532 145.869ZM72.6348 144.511C73.3809 144.511 74.0413 144.303 74.6161 143.887C75.2032 143.459 75.6618 142.854 75.9921 142.071C76.3223 141.276 76.4874 140.328 76.4874 139.227C76.4874 138.127 76.3223 137.185 75.9921 136.402C75.6618 135.607 75.2032 135.002 74.6161 134.586C74.0413 134.17 73.3809 133.962 72.6348 133.962C71.8888 133.962 71.2222 134.17 70.6352 134.586C70.0603 135.002 69.6017 135.607 69.2592 136.402C68.929 137.185 68.7639 138.127 68.7639 139.227C68.7639 140.328 68.929 141.276 69.2592 142.071C69.6017 142.854 70.0603 143.459 70.6352 143.887C71.2222 144.303 71.8888 144.511 72.6348 144.511ZM79.931 145.648V144.566C80.8116 143.881 81.6372 143.19 82.4077 142.493C83.1904 141.796 83.8876 141.105 84.4991 140.42C85.1106 139.723 85.5876 139.044 85.93 138.384C86.2847 137.723 86.4621 137.087 86.4621 136.476C86.4621 136.023 86.3826 135.607 86.2236 135.228C86.0646 134.837 85.8139 134.519 85.4714 134.274C85.129 134.03 84.6642 133.907 84.0771 133.907C83.5023 133.907 83.0253 134.036 82.6462 134.293C82.267 134.537 81.9796 134.867 81.784 135.283C81.6005 135.687 81.5088 136.133 81.5088 136.622H80.0228C80.035 135.779 80.2123 135.057 80.5548 134.458C80.9095 133.846 81.3926 133.381 82.0041 133.063C82.6156 132.745 83.3127 132.586 84.0955 132.586C84.866 132.586 85.5448 132.733 86.1318 133.027C86.7189 133.308 87.1775 133.73 87.5078 134.293C87.838 134.855 88.0031 135.564 88.0031 136.421C88.0031 137.02 87.8808 137.619 87.6362 138.218C87.3916 138.818 87.0614 139.405 86.6455 139.98C86.2297 140.542 85.7649 141.087 85.2513 141.612C84.7498 142.138 84.2361 142.634 83.7102 143.098C83.1843 143.563 82.6829 143.985 82.2059 144.364H88.4434V145.648H79.931ZM92.0248 145.648V134.531L89.8784 135.045V133.962L92.5385 132.807H93.5842V145.648H92.0248Z" fill="#67757C"/>
<circle cx="135.1" cy="139.647" r="5.73298" fill="#1E4DB7"/>
<path d="M151.161 145.648V144.566C152.042 143.881 152.867 143.19 153.638 142.493C154.421 141.796 155.118 141.105 155.729 140.42C156.341 139.723 156.818 139.044 157.16 138.384C157.515 137.723 157.692 137.087 157.692 136.476C157.692 136.023 157.613 135.607 157.454 135.228C157.295 134.837 157.044 134.519 156.701 134.274C156.359 134.03 155.894 133.907 155.307 133.907C154.732 133.907 154.255 134.036 153.876 134.293C153.497 134.537 153.21 134.867 153.014 135.283C152.831 135.687 152.739 136.133 152.739 136.622H151.253C151.265 135.779 151.442 135.057 151.785 134.458C152.14 133.846 152.623 133.381 153.234 133.063C153.846 132.745 154.543 132.586 155.326 132.586C156.096 132.586 156.775 132.733 157.362 133.027C157.949 133.308 158.408 133.73 158.738 134.293C159.068 134.855 159.233 135.564 159.233 136.421C159.233 137.02 159.111 137.619 158.866 138.218C158.622 138.818 158.291 139.405 157.876 139.98C157.46 140.542 156.995 141.087 156.481 141.612C155.98 142.138 155.466 142.634 154.94 143.098C154.414 143.563 153.913 143.985 153.436 144.364H159.673V145.648H151.161ZM166.69 145.869C165.552 145.869 164.574 145.593 163.755 145.043C162.947 144.48 162.324 143.704 161.883 142.713C161.443 141.71 161.223 140.548 161.223 139.227C161.223 137.907 161.443 136.751 161.883 135.76C162.324 134.757 162.947 133.981 163.755 133.43C164.574 132.868 165.552 132.586 166.69 132.586C167.815 132.586 168.781 132.868 169.588 133.43C170.396 133.981 171.013 134.757 171.441 135.76C171.882 136.751 172.102 137.907 172.102 139.227C172.102 140.548 171.882 141.71 171.441 142.713C171.013 143.704 170.396 144.48 169.588 145.043C168.781 145.593 167.815 145.869 166.69 145.869ZM166.671 144.511C167.417 144.511 168.078 144.303 168.653 143.887C169.24 143.459 169.698 142.854 170.029 142.071C170.359 141.276 170.524 140.328 170.524 139.227C170.524 138.127 170.359 137.185 170.029 136.402C169.698 135.607 169.24 135.002 168.653 134.586C168.078 134.17 167.417 133.962 166.671 133.962C165.925 133.962 165.259 134.17 164.672 134.586C164.097 135.002 163.638 135.607 163.296 136.402C162.966 137.185 162.801 138.127 162.801 139.227C162.801 140.328 162.966 141.276 163.296 142.071C163.638 142.854 164.097 143.459 164.672 143.887C165.259 144.303 165.925 144.511 166.671 144.511ZM173.968 145.648V144.566C174.848 143.881 175.674 143.19 176.444 142.493C177.227 141.796 177.924 141.105 178.536 140.42C179.147 139.723 179.624 139.044 179.967 138.384C180.321 137.723 180.499 137.087 180.499 136.476C180.499 136.023 180.419 135.607 180.26 135.228C180.101 134.837 179.85 134.519 179.508 134.274C179.166 134.03 178.701 133.907 178.114 133.907C177.539 133.907 177.062 134.036 176.683 134.293C176.304 134.537 176.016 134.867 175.821 135.283C175.637 135.687 175.545 136.133 175.545 136.622H174.059C174.072 135.779 174.249 135.057 174.591 134.458C174.946 133.846 175.429 133.381 176.041 133.063C176.652 132.745 177.349 132.586 178.132 132.586C178.903 132.586 179.581 132.733 180.168 133.027C180.756 133.308 181.214 133.73 181.544 134.293C181.875 134.855 182.04 135.564 182.04 136.421C182.04 137.02 181.917 137.619 181.673 138.218C181.428 138.818 181.098 139.405 180.682 139.98C180.266 140.542 179.802 141.087 179.288 141.612C178.786 142.138 178.273 142.634 177.747 143.098C177.221 143.563 176.72 143.985 176.243 144.364H182.48V145.648H173.968ZM189.496 145.869C188.359 145.869 187.38 145.593 186.561 145.043C185.754 144.48 185.13 143.704 184.69 142.713C184.249 141.71 184.029 140.548 184.029 139.227C184.029 137.907 184.249 136.751 184.69 135.76C185.13 134.757 185.754 133.981 186.561 133.43C187.38 132.868 188.359 132.586 189.496 132.586C190.622 132.586 191.588 132.868 192.395 133.43C193.202 133.981 193.82 134.757 194.248 135.76C194.688 136.751 194.908 137.907 194.908 139.227C194.908 140.548 194.688 141.71 194.248 142.713C193.82 143.704 193.202 144.48 192.395 145.043C191.588 145.593 190.622 145.869 189.496 145.869ZM189.478 144.511C190.224 144.511 190.884 144.303 191.459 143.887C192.046 143.459 192.505 142.854 192.835 142.071C193.165 141.276 193.331 140.328 193.331 139.227C193.331 138.127 193.165 137.185 192.835 136.402C192.505 135.607 192.046 135.002 191.459 134.586C190.884 134.17 190.224 133.962 189.478 133.962C188.732 133.962 188.065 134.17 187.478 134.586C186.903 135.002 186.445 135.607 186.102 136.402C185.772 137.185 185.607 138.127 185.607 139.227C185.607 140.328 185.772 141.276 186.102 142.071C186.445 142.854 186.903 143.459 187.478 143.887C188.065 144.303 188.732 144.511 189.478 144.511Z" fill="#67757C"/>
<circle cx="41.0631" cy="171.647" r="5.73298" fill="#FEC90F"/>
<path d="M57.1245 177.648V176.566C58.0051 175.881 58.8307 175.19 59.6012 174.493C60.3839 173.796 61.081 173.105 61.6926 172.42C62.3041 171.723 62.7811 171.044 63.1235 170.384C63.4782 169.723 63.6555 169.087 63.6555 168.476C63.6555 168.023 63.576 167.607 63.417 167.228C63.258 166.837 63.0073 166.519 62.6649 166.274C62.3224 166.03 61.8577 165.907 61.2706 165.907C60.6958 165.907 60.2188 166.036 59.8397 166.293C59.4605 166.537 59.1731 166.867 58.9774 167.283C58.794 167.687 58.7022 168.133 58.7022 168.622H57.2162C57.2285 167.779 57.4058 167.057 57.7483 166.458C58.1029 165.846 58.586 165.381 59.1976 165.063C59.8091 164.745 60.5062 164.586 61.289 164.586C62.0595 164.586 62.7383 164.733 63.3253 165.027C63.9124 165.308 64.371 165.73 64.7012 166.293C65.0315 166.855 65.1966 167.564 65.1966 168.421C65.1966 169.02 65.0743 169.619 64.8297 170.218C64.585 170.818 64.2548 171.405 63.839 171.98C63.4232 172.542 62.9584 173.087 62.4447 173.612C61.9433 174.138 61.4296 174.634 60.9037 175.098C60.3778 175.563 59.8764 175.985 59.3994 176.364H65.6369V177.648H57.1245ZM72.6532 177.869C71.5157 177.869 70.5373 177.593 69.7179 177.043C68.9107 176.48 68.2869 175.704 67.8466 174.713C67.4063 173.71 67.1862 172.548 67.1862 171.227C67.1862 169.907 67.4063 168.751 67.8466 167.76C68.2869 166.757 68.9107 165.981 69.7179 165.43C70.5373 164.868 71.5157 164.586 72.6532 164.586C73.7784 164.586 74.7446 164.868 75.5518 165.43C76.359 165.981 76.9766 166.757 77.4047 167.76C77.845 168.751 78.0651 169.907 78.0651 171.227C78.0651 172.548 77.845 173.71 77.4047 174.713C76.9766 175.704 76.359 176.48 75.5518 177.043C74.7446 177.593 73.7784 177.869 72.6532 177.869ZM72.6348 176.511C73.3809 176.511 74.0413 176.303 74.6161 175.887C75.2032 175.459 75.6618 174.854 75.9921 174.071C76.3223 173.276 76.4874 172.328 76.4874 171.227C76.4874 170.127 76.3223 169.185 75.9921 168.402C75.6618 167.607 75.2032 167.002 74.6161 166.586C74.0413 166.17 73.3809 165.962 72.6348 165.962C71.8888 165.962 71.2222 166.17 70.6352 166.586C70.0603 167.002 69.6017 167.607 69.2592 168.402C68.929 169.185 68.7639 170.127 68.7639 171.227C68.7639 172.328 68.929 173.276 69.2592 174.071C69.6017 174.854 70.0603 175.459 70.6352 175.887C71.2222 176.303 71.8888 176.511 72.6348 176.511ZM81.6696 177.648V166.531L79.5231 167.045V165.962L82.1833 164.807H83.2289V177.648H81.6696ZM90.1749 177.869C89.3677 177.869 88.6767 177.71 88.1018 177.392C87.527 177.074 87.0684 176.652 86.7259 176.126C86.3957 175.588 86.1939 175.001 86.1205 174.365H87.5515C87.6738 175.062 87.9673 175.6 88.4321 175.979C88.8968 176.346 89.4839 176.529 90.1932 176.529C90.8414 176.529 91.4163 176.334 91.9177 175.942C92.4314 175.551 92.8411 174.952 93.1469 174.144C93.4526 173.337 93.6239 172.316 93.6605 171.081C93.6728 171.044 93.6789 171.013 93.6789 170.989C93.6789 170.952 93.6789 170.922 93.6789 170.897C93.4832 171.276 93.208 171.631 92.8533 171.961C92.4987 172.279 92.0767 172.536 91.5875 172.732C91.1105 172.928 90.5663 173.025 89.9547 173.025C89.2332 173.025 88.5483 172.854 87.9 172.512C87.2641 172.169 86.7443 171.692 86.3407 171.081C85.9493 170.457 85.7536 169.729 85.7536 168.898C85.7536 168.176 85.9248 167.485 86.2673 166.825C86.622 166.164 87.1295 165.626 87.79 165.21C88.4626 164.794 89.2515 164.586 90.1565 164.586C91.0861 164.586 91.8688 164.764 92.5048 165.118C93.1408 165.461 93.6483 165.926 94.0275 166.513C94.4188 167.1 94.7001 167.76 94.8714 168.494C95.0548 169.216 95.1465 169.956 95.1465 170.714C95.1465 172.12 94.9508 173.362 94.5595 174.438C94.1681 175.514 93.5994 176.358 92.8533 176.97C92.1195 177.569 91.2267 177.869 90.1749 177.869ZM90.2666 171.686C90.8414 171.686 91.3551 171.558 91.8076 171.301C92.2602 171.032 92.621 170.677 92.89 170.237C93.1591 169.797 93.2936 169.32 93.2936 168.806C93.2936 168.256 93.1591 167.766 92.89 167.338C92.621 166.898 92.2602 166.555 91.8076 166.311C91.3551 166.066 90.8414 165.944 90.2666 165.944C89.704 165.944 89.1965 166.072 88.7439 166.329C88.2914 166.574 87.9367 166.91 87.6799 167.338C87.4353 167.766 87.313 168.262 87.313 168.824C87.313 169.399 87.4353 169.9 87.6799 170.329C87.9367 170.757 88.2914 171.093 88.7439 171.338C89.1965 171.57 89.704 171.686 90.2666 171.686Z" fill="#67757C"/>
<circle cx="137.1" cy="171.647" r="5.73298" fill="#DBDBDB"/>
<path d="M153.161 177.648V176.566C154.042 175.881 154.867 175.19 155.638 174.493C156.421 173.796 157.118 173.105 157.729 172.42C158.341 171.723 158.818 171.044 159.16 170.384C159.515 169.723 159.692 169.087 159.692 168.476C159.692 168.023 159.613 167.607 159.454 167.228C159.295 166.837 159.044 166.519 158.701 166.274C158.359 166.03 157.894 165.907 157.307 165.907C156.732 165.907 156.255 166.036 155.876 166.293C155.497 166.537 155.21 166.867 155.014 167.283C154.831 167.687 154.739 168.133 154.739 168.622H153.253C153.265 167.779 153.442 167.057 153.785 166.458C154.14 165.846 154.623 165.381 155.234 165.063C155.846 164.745 156.543 164.586 157.326 164.586C158.096 164.586 158.775 164.733 159.362 165.027C159.949 165.308 160.408 165.73 160.738 166.293C161.068 166.855 161.233 167.564 161.233 168.421C161.233 169.02 161.111 169.619 160.866 170.218C160.622 170.818 160.291 171.405 159.876 171.98C159.46 172.542 158.995 173.087 158.481 173.612C157.98 174.138 157.466 174.634 156.94 175.098C156.414 175.563 155.913 175.985 155.436 176.364H161.673V177.648H153.161ZM168.69 177.869C167.552 177.869 166.574 177.593 165.755 177.043C164.947 176.48 164.324 175.704 163.883 174.713C163.443 173.71 163.223 172.548 163.223 171.227C163.223 169.907 163.443 168.751 163.883 167.76C164.324 166.757 164.947 165.981 165.755 165.43C166.574 164.868 167.552 164.586 168.69 164.586C169.815 164.586 170.781 164.868 171.588 165.43C172.396 165.981 173.013 166.757 173.441 167.76C173.882 168.751 174.102 169.907 174.102 171.227C174.102 172.548 173.882 173.71 173.441 174.713C173.013 175.704 172.396 176.48 171.588 177.043C170.781 177.593 169.815 177.869 168.69 177.869ZM168.671 176.511C169.417 176.511 170.078 176.303 170.653 175.887C171.24 175.459 171.698 174.854 172.029 174.071C172.359 173.276 172.524 172.328 172.524 171.227C172.524 170.127 172.359 169.185 172.029 168.402C171.698 167.607 171.24 167.002 170.653 166.586C170.078 166.17 169.417 165.962 168.671 165.962C167.925 165.962 167.259 166.17 166.672 166.586C166.097 167.002 165.638 167.607 165.296 168.402C164.966 169.185 164.801 170.127 164.801 171.227C164.801 172.328 164.966 173.276 165.296 174.071C165.638 174.854 166.097 175.459 166.672 175.887C167.259 176.303 167.925 176.511 168.671 176.511ZM177.706 177.648V166.531L175.56 167.045V165.962L178.22 164.807H179.266V177.648H177.706ZM186.23 177.869C185.386 177.869 184.628 177.716 183.955 177.41C183.295 177.092 182.769 176.658 182.377 176.107C181.998 175.545 181.809 174.897 181.809 174.163C181.809 173.637 181.906 173.148 182.102 172.695C182.31 172.243 182.604 171.851 182.983 171.521C183.362 171.179 183.802 170.94 184.304 170.806C183.606 170.561 183.068 170.182 182.689 169.668C182.31 169.154 182.12 168.598 182.12 167.999C182.12 167.363 182.286 166.788 182.616 166.274C182.946 165.761 183.417 165.351 184.028 165.045C184.64 164.739 185.374 164.586 186.23 164.586C187.074 164.586 187.801 164.739 188.413 165.045C189.024 165.351 189.495 165.761 189.826 166.274C190.156 166.788 190.321 167.363 190.321 167.999C190.321 168.598 190.131 169.154 189.752 169.668C189.373 170.182 188.841 170.561 188.156 170.806C188.658 170.94 189.092 171.179 189.459 171.521C189.838 171.851 190.131 172.243 190.339 172.695C190.547 173.148 190.651 173.637 190.651 174.163C190.651 174.897 190.455 175.545 190.064 176.107C189.673 176.658 189.141 177.092 188.468 177.41C187.808 177.716 187.062 177.869 186.23 177.869ZM186.23 176.511C187.196 176.511 187.918 176.291 188.395 175.851C188.872 175.398 189.11 174.805 189.11 174.071C189.11 173.239 188.847 172.61 188.321 172.181C187.795 171.753 187.098 171.539 186.23 171.539C185.349 171.539 184.646 171.753 184.12 172.181C183.606 172.61 183.35 173.239 183.35 174.071C183.35 174.805 183.588 175.398 184.065 175.851C184.542 176.291 185.264 176.511 186.23 176.511ZM186.23 170.255C187 170.255 187.612 170.053 188.064 169.65C188.529 169.246 188.762 168.726 188.762 168.09C188.762 167.369 188.535 166.825 188.083 166.458C187.63 166.091 187.013 165.907 186.23 165.907C185.447 165.907 184.829 166.091 184.377 166.458C183.924 166.825 183.698 167.369 183.698 168.09C183.698 168.726 183.924 169.246 184.377 169.65C184.829 170.053 185.447 170.255 186.23 170.255Z" fill="#67757C"/>
<path d="M381.602 109.023C381.602 144.168 353.111 172.659 317.966 172.659C282.821 172.659 254.33 144.168 254.33 109.023C254.33 73.8776 282.821 45.3867 317.966 45.3867C353.111 45.3867 381.602 73.8776 381.602 109.023ZM268.924 109.023C268.924 136.108 290.881 158.065 317.966 158.065C345.051 158.065 367.008 136.108 367.008 109.023C367.008 81.9376 345.051 59.9806 317.966 59.9806C290.881 59.9806 268.924 81.9376 268.924 109.023Z" fill="#DBDBDB"/>
<path d="M261.627 109.023C257.597 109.023 254.287 112.301 254.748 116.304C256.079 127.86 260.56 138.882 267.766 148.132C274.972 157.382 284.563 164.422 295.442 168.54C299.212 169.966 303.199 167.558 304.185 163.651V163.651C305.171 159.743 302.771 155.826 299.053 154.272C291.31 151.035 284.486 145.847 279.279 139.163C274.071 132.478 270.71 124.593 269.466 116.293C268.868 112.308 265.657 109.023 261.627 109.023V109.023Z" fill="#FEC90F"/>
<path d="M296.329 161.041C294.781 164.762 296.536 169.077 300.41 170.189C310.008 172.944 320.156 173.411 330.028 171.505C342.298 169.137 353.598 163.208 362.52 154.459C371.442 145.711 377.591 134.529 380.2 122.308C382.299 112.475 382.032 102.32 379.465 92.669C378.429 88.7744 374.15 86.9351 370.399 88.4096V88.4096C366.648 89.8841 364.862 94.116 365.764 98.0438C367.359 104.991 367.428 112.233 365.928 119.261C363.917 128.679 359.179 137.297 352.303 144.039C345.427 150.782 336.718 155.351 327.262 157.176C320.206 158.538 312.967 158.328 306.052 156.596C302.143 155.617 297.876 157.32 296.329 161.041V161.041Z" fill="#1E4DB7"/>
<path d="M374.216 105.86C378.24 105.633 381.361 102.175 380.676 98.2037C379.674 92.3942 377.867 86.7403 375.298 81.4077C371.672 73.8788 366.598 67.1378 360.366 61.5698C354.135 56.0017 346.867 51.7156 338.979 48.9561C333.392 47.0017 327.571 45.8402 321.686 45.4955C317.663 45.26 314.577 48.7489 314.803 52.7726V52.7726C315.029 56.7962 318.489 59.8181 322.502 60.1908C326.468 60.5592 330.383 61.4102 334.16 62.7315C340.239 64.8581 345.84 68.1613 350.642 72.4524C355.445 76.7435 359.355 81.9385 362.15 87.7408C363.886 91.3457 365.171 95.1412 365.982 99.041C366.802 102.987 370.193 106.086 374.216 105.86V105.86Z" fill="#1A9BFC"/>
<g clip-path="url(#clip0_3236_1471)">
<path d="M315.1 122.211C315.733 122.211 316.246 121.698 316.246 121.065C316.246 120.431 315.733 119.918 315.1 119.918C314.466 119.918 313.953 120.431 313.953 121.065C313.953 121.698 314.466 122.211 315.1 122.211Z" fill="#BCC3D3" stroke="#BCC3D3" stroke-width="2.29319" stroke-linecap="round" stroke-linejoin="round"/>
<path d="M327.712 122.211C328.345 122.211 328.859 121.698 328.859 121.065C328.859 120.431 328.345 119.918 327.712 119.918C327.079 119.918 326.565 120.431 326.565 121.065C326.565 121.698 327.079 122.211 327.712 122.211Z" fill="#BCC3D3" stroke="#BCC3D3" stroke-width="2.29319" stroke-linecap="round" stroke-linejoin="round"/>
<path d="M305.927 98.1328H310.513L313.586 113.486C313.691 114.014 313.978 114.488 314.397 114.825C314.817 115.163 315.341 115.342 315.879 115.332H327.024C327.562 115.342 328.087 115.163 328.506 114.825C328.925 114.488 329.212 114.014 329.317 113.486L331.152 103.866H311.66" fill="#BCC3D3"/>
<path d="M305.927 98.1328H310.513L313.586 113.486C313.691 114.014 313.978 114.488 314.397 114.825C314.817 115.163 315.341 115.342 315.879 115.332H327.024C327.562 115.342 328.087 115.163 328.506 114.825C328.925 114.488 329.212 114.014 329.317 113.486L331.152 103.866H311.66" stroke="#BCC3D3" stroke-width="2.29319" stroke-linecap="round" stroke-linejoin="round"/>
</g>
<defs>
<clipPath id="clip0_3236_1471">
<rect width="27.5183" height="27.5183" fill="white" transform="translate(304.78 95.8359)"/>
</clipPath>
</defs>
</svg>
